<?xml version="1.0" standalone="no"?>
<!DOCTYPE svg PUBLIC "-//W3C//DTD SVG 20010904//EN"
 "http://www.w3.org/TR/2001/REC-SVG-20010904/DTD/svg10.dtd">
<svg version="1.0" xmlns="http://www.w3.org/2000/svg"
 width="1280.000000pt" height="640.000000pt" viewBox="0 0 1280.000000 640.000000"
 preserveAspectRatio="xMidYMid meet">
<g transform="translate(0.000000,640.000000) scale(0.100000,-0.100000)"
fill="#000000" stroke="none">
<path d="M180 4090 l0 -60 6220 0 6220 0 0 60 0 60 -6220 0 -6220 0 0 -60z"/>
<path d="M1188 3265 c-194 -33 -368 -122 -559 -289 -48 -41 -164 -162 -260
-268 -95 -106 -208 -227 -250 -268 l-78 -76 38 -44 39 -45 48 41 c27 22 113
112 192 200 206 229 350 373 439 441 261 196 544 251 758 148 122 -59 174
-114 435 -470 89 -121 215 -248 294 -294 87 -52 200 -81 312 -81 121 0 181 13
284 62 119 57 245 185 410 416 180 251 286 351 418 392 94 29 175 34 260 16
167 -35 280 -133 488 -420 255 -355 394 -454 649 -464 184 -7 314 38 448 156
93 83 129 126 313 381 203 281 383 386 604 352 169 -26 301 -126 464 -352 184
-255 220 -298 313 -381 134 -118 264 -163 448 -156 255 10 394 109 649 464
208 287 321 385 488 420 85 18 166 13 260 -16 132 -41 238 -141 418 -392 165
-231 291 -359 410 -416 103 -49 163 -62 284 -62 112 0 225 29 312 81 79 46
205 173 294 294 261 356 313 411 435 470 243 117 563 32 852 -227 81 -73 131
-125 364 -385 70 -77 148 -157 174 -179 l48 -39 38 45 38 44 -78 76 c-42 41
-155 162 -250 268 -187 208 -298 311 -429 398 -145 96 -273 144 -442 165 -88
11 -114 11 -198 -3 -216 -37 -350 -145 -587 -473 -192 -267 -297 -361 -449
-401 -76 -20 -202 -18 -279 6 -141 44 -244 140 -437 410 -136 189 -262 325
-351 378 -160 94 -352 115 -527 56 -163 -54 -279 -161 -487 -448 -237 -326
-362 -416 -581 -416 -150 0 -270 56 -390 181 -65 68 -98 110 -240 308 -155
216 -284 327 -439 378 -68 22 -98 26 -195 26 -97 0 -127 -4 -195 -26 -155 -51
-284 -162 -439 -378 -142 -198 -175 -240 -240 -308 -120 -125 -240 -181 -390
-181 -219 0 -344 90 -581 416 -208 287 -324 394 -487 448 -175 59 -367 38
-527 -56 -89 -53 -215 -189 -351 -378 -193 -270 -296 -366 -437 -410 -77 -24
-203 -26 -279 -6 -152 40 -257 134 -449 401 -171 237 -287 356 -405 414 -136
67 -267 84 -432 56z"/>
</g>
</svg>
