<?xml version="1.0" encoding="UTF-8"?>
<svg enable-background="new 0 0 1920 1234" version="1.1" viewBox="0 0 1920 1234" xmlns="http://www.w3.org/2000/svg">
 <style type="text/css">.st0{fill:#030303;} .st1{fill:#FAC006;}</style>
 <rect class="st0" width="1920" height="1234"/>
 <path class="st1" d="m1288.1 78.365c-292.38-156.15-663.05-58.229-827.91 218.71s-61.477 628.02 230.91 784.17 663.05 58.229 827.91-218.71 61.477-628.02-230.91-784.17z"/>
 <path class="st0" d="m1650.5 1197c-21-28-59-37-70-72-4-13 1-27-5-40-7-15-21-23-31-38-16-22-1-44 7-65 1.916-7.664-20.831-46.818-22.49-44.04-0.08-3.01-0.51-5.98-1.28-8.87-24.307-14.993-20.265-21.531-28.76-31.57-5.54-4.01-12.66-5.57-17.63-10.39-5.58-6.84-4.03-17.14-10.28-23.6-6.2-5.78-15.71-5.58-22-11.27-1.74-2.3-2.35-5.34-4.53-7.3-2.68-2.46-5.79-4.39-8.68-6.57-0.021-0.496 5.03-180.35 5.03-180.35-4.958-15.678-21.512-77.363-26.28-93.11-34.568 113.02-28.094 93.894-28.6 118.32-7.96 0.57-15.89 1.6-23.84 2.14 0.177-18.03 1.835-238.89 1.97-245.42 1.88-7.8 3.64-15.66 4.04-23.71-0.9-0.15-2.7-0.44-3.6-0.59-2.666-10.626-39.772-150.24-42.7-160.96-1.748 5.48-42.842 157.02-43.02 160.88-1.68 0.1-3.39 0.19-5.04 0.29 1.77 9.68 5.77 19.09 5.22 29.08-0.085 94.918 1.044 62.504-4.4 85.14-18.898 57.239-14.229 43.327-14.96 76.66-25.78-16.973-17.402-8.48-35.16-71.18-11.251 51.214-7.525 54.05-35.77 75.81-1.948-63.661 5.3-17.377-36.19-163.54-38.494 147.81-27.012 107.39-27.19 241.11-0.31 12.67 1.01 25.39 0.26 38.02-22.845 61.676-19.125 24.744-18.91 111.39-20.424 1.337-20.743 8.102-33.11 11.23-5.89 1.28-9.08 7.51-15.07 8.54-6.22 1.84-13.65 1.58-18.57 6.35-6.7 8.91-10.66 19.5-13.31 30.24-2.56 2.97-4.82 6.2-7.61 8.96-4.93 4.66-12.95 3.18-17.7 8.13-39.553 39.449-14.599 41.794-59.77 49.24-29.066 3.772-69.996 31.612-75.41 39.81-5.98 9.79-10.01 20.89-17.89 29.45-6.54 2.88-12.87 6.19-19.45 8.97-4.64-0.03-9.2 0.66-13.75 1.39-8.321 6.975-16.307 24.538-21.54 36.59-5.302 16.772-2.689 37.639-28.22 46.31-8.84 2.82-18.097 21.927-23.37 31.98-1.252-0.207-2.508-0.309-3.765-0.361-0.541 1.637-1.061 3.266-1.675 4.801-3 7-15 8-16 14-7.615 24.747-23.381 40.438-37.817 60h970.54c0.229-25.37 6.627-24.527-2.728-37z"/>
 <path class="st0" d="m580.84 205.11c22.273-11.252 31.685-10.295 47.14-4.35-0.42 4.61 1.47 8.86 3.78 12.71-0.51 2.27-0.98 4.54-1.46 6.81 2.38-0.52 4.74-1.27 7.2-1.43 2.98 1.41 5.61 3.63 8.99 4.12 3.75 0.56 5 4.68 6.6 7.55 1.155-14.455-0.927-2.824 4.87-17.81 2.79-0.33 4.96 1.8 6.9 3.47 14.034 13.953 16.479 42.677 18.18 56.39 7.58 10.34 16.09 20.23 21.58 31.9 5.22-9.77 10.95-19.28 16.36-28.94-1.85-5.323-15.64-29.991-2.46-44.31-12.15-4.34-19.22-16.23-23.15-27.84-0.67-3.28-4.13-4.38-6.51-6.15-31.399-21.17-33.45-49.725-35.07-57.89-9.292 20.027-24.182 16.939-32.11 16.46-7.572 13.251-15.534 12.388-24.24 4.97-7.458 6.985-9.859 6.782-20.07 6.33 0.138-0.129 0.279-0.256 0.417-0.385l-30.813-2.485 8.493 24.644c0.014-0.011 0.028-0.023 0.042-0.034 4.682 1.607 21.81 9.273 25.331 16.27zm67.97 10.119c0.26 1.3 0.22 2.63 0.27 3.95-1.43-0.39-2.84-0.82-4.25-1.25-0.05-1.43-0.07-2.86-0.07-4.29 1.39 0.36 3.12 0.25 4.05 1.59zm-12.13-6.649c1.42 0.39 3.11 0.4 4.14 1.63 0.22 1.18 0.26 2.37 0.38 3.57-0.74 0.07-2.21 0.21-2.95 0.28-1.12-1.641-1.69-3.49-1.57-5.48z"/>
 <path class="st0" d="m960.36 65.55c-1.26-0.56-4.43-1.73-1.97-3.09 0.63 0.52 1.9 1.56 2.53 2.09 14.97 3.37 30.07 6.16 45.12 9.14 7.988 20.652 22.531 44.104 44.84 43.8-8.366 17.769 1.257 40.606 9.79 53.66-6.998 36.698 1.279 72.352 28.19 100.73-23.383-6.01-38.892 2.465-46.78 18.93-7.47-0.65-16-2.02-22.41 2.87-5.73 4.31-6.68 12.06-6.23 18.73-18.739-0.319-29.019 16.209-31.44 34.58-15.044-4.337-32.747-10.294-43.98 1.81 5.057-12.647 18.356-47.664 12.36-59.99 22.908-8.441 44.61-23.23 48.36-47.28-5.64-2.79-7.89-9.11-9.64-14.72-2.89-1.71-5.95-3.11-8.87-4.75 2.86-2.42 6.02-4.45 8.95-6.79 0.09-5.05 0.51-10.58 4.35-14.33 0.51-4.54-1.25-8.81-2.66-13.01 2.64 2.46 5.27 4.94 7.96 7.35 5.53 0.45 10.73 2.38 15.8 4.48 14.639-28.138-40.728-79.145-41.68-84.93-3.44-16.6-6.97-33.26-12.59-49.28m37 139.07c-0.38 1.76-1.23 3.76-0.04 5.42 0.67 2.24 3.33 1.41 5.1 1.59 0.64-3.05 0.44-6.22-2.31-8.14-0.93 0.38-1.84 0.75-2.75 1.13m-1.77 12.48c-1.02 2.47-0.94 5.04 0.08 7.49 1.59 0.05 3.19 0.05 4.8 0 0.02-2.34 0.8-5.21-1.23-6.97-1.21-0.31-2.45-0.39-3.65-0.52z"/>
 <path class="st0" d="m815.48 149.3c1.75-2.74 4.16-4.97 6.39-7.31 1.36 4.7 5.08 8.86 4.49 13.97-0.22 5.3-0.48 11.21 3.04 15.62 2.41 0.52 2.7-2.98 3.81-4.47 0.13 0.5 0.37 1.52 0.5 2.02 1.59 0.88 3.18 1.75 4.82 2.56 0.26 2.15 0.59 4.29 0.91 6.44 4.3 2 9.09 1.89 13.66 1 2.7 3.18 6.01 5.75 9.63 7.81-2.98 1.01-5.16 3.27-7.17 5.58-1.98-1.2-4.09-2.16-6.28-2.86-2.54 1.71-4.98 0.49-7.16-1.06-9.126 5.409-5.656-1.914-14.54 5.21 0.61-7.84-3.11-15.23-8.7-20.52-0.54-3.93-2.09-7.68-5.03-10.42 3.41-3.91 2.06-8.95 1.63-13.57z"/>
 <path class="st0" d="m607.3 379.05c16.404 10.342 51.889 29.485 69.79 28.39 0.75-0.49 1.51-0.97 2.29-1.45 8.982 40.909 21.367 53.337 39.41 65.17 3.29 2.12 6.68 4.41 10.68 4.87 4.59-6.18 12.72-7.94 19.95-8.75 2.84-3.31 5.32-6.9 7.83-10.46 2.27 4.09 4.27 8.33 6.44 12.48 17.12 4.214 12.232 5.172 18.52 8.91 5.3 1.09 10.64-0.32 15.84-1.33-3.69 3.03-7.56 5.85-11.16 8.99-1.86 6.08-3.75 12.53-8.33 17.18-0.06 0.39-0.17 1.18-0.23 1.57 32.179 21.917 107.05-32.818 111.55-35.05 26.825-2.291 60.897-2.271 71.05-9.3-5.838 7.875-20.849 51.737-22.95 58.07-27.087 6.618-61.167 19.927-63.82 47.69-19.233-12.909-46.968-7.815-68.23 1.09-4.856 2.11-62.543-30.5-132.64 15.94 4.93-10.24 7.24-21.66 5.96-33.01-0.12 0.6-0.23 1.2-0.33 1.8-1.21-12.86-9.75-23.63-19.69-31.24 0.564-3.947 9.535-25.851-5.6-35.2-4.77-3.22-10.58-3.99-16.1-5.03 4.951-22.375-13.703-38.076-35.61-45.6-1.62-0.36-0.41-2.07-0.09-2.96 8.348-16.424 17.261-38.473 5.47-52.77m141.85 99.9c1.34 2.06 3.04 4.41 5.9 3.86 2.77 0.49 4.46-1.82 5.82-3.83-1.53-1.76-3.19-4.09-5.87-3.61-2.68-0.48-4.25 1.93-5.85 3.58m16.79 6.27c1.09 3.42 5.43 2.81 8.21 2.29 1.04-1.06 1.82-2.33 2.67-3.55-1.13-1.18-2.27-2.34-3.43-3.47-1.62 0-3.22-0.01-4.82 0-1.02 1.42-3.65 2.66-2.63 4.73z"/>
 <path class="st0" d="m516.82 450.79c6.54 1.07 12.98-1.53 19.07-3.61-2.08 4.57-1.15 9.55 0.13 14.18-8.073 2.514-9.338 2.846-11.93 10.15-6.875 1.709-6.439 0.926-7.57 9.69-3.9 3.737-8.273 5.609-6.19 15.68-16.505-15.659-31.501-7.844-36.8-11.58-4.45-2.66-9.69-3.44-14.74-2.39-0.75-7.63-7.97-12.1-14.43-14.69-1.28-5.24-2.08-10.58-3.1-15.87 13.805 4.961 16.702 3.3 20.22 7.15 6.74 6.57 15.06 13.4 25.06 12.85-0.74-2.84-1.52-5.71-3.16-8.17 1.15 0.06 2.3 0.12 3.46 0.18 1.72-0.57 3.48-1 5.25-1.39 0.66-0.94 1.32-1.88 1.98-2.81 0.59 0.93 1.18 1.87 1.79 2.82 1.91 1.06 3.73 2.25 5.47 3.58 9.112-3.633 10.612-5.758 15.49-15.77m-24.46 15.27c-0.1 1.79 2.94 1.9 2.86 0.06 0.01-1.78-2.96-1.95-2.86-0.06z"/>
 <path class="st0" d="m1068.6 469.53c2.16-2.58 4.3-5.17 6.53-7.7 1.33 3.77 3.57 7.22 4.54 11.1-0.15 6.33-0.66 13.07 2.91 18.67 0.4 0.01 1.19 0.03 1.59 0.03 0.74-1.14 1.5-2.27 2.27-3.39 1.82 1.39 3.76 2.62 5.82 3.65 0.05 1.94 0.14 3.89 0.23 5.84 4.24 2.69 9.23 1.96 13.96 1.68 2.93 2.82 6.04 5.45 9.59 7.5-2.88 1.16-5.19 3.2-6.98 5.69-2.95-2.17-6.6-3.67-10.12-1.83-0.97-0.75-1.94-1.5-2.89-2.24-10.608 4.878-5.321-1.082-15.16 4.75-0.431-10.93-1.912-11.59-8.22-19.79-1.22-3.79-2.24-7.84-5.45-10.52 3.05-3.86 2.65-8.97 1.38-13.44m18.67 21.75c0.57 0.52 0.57 0.52 0 0m2.05 1.98c0.42 0.64 0.42 0.64 0 0z"/>
 <path class="st0" d="m1046.8 649.17c7.82-1.76 15.4-4.42 22.91-7.19-8.353 7.911-4.307 19.33-1.7 31.03-13.136 1.351-23.403 7.7-24.67 21.53-18.324-1.005-15.849 12.97-15.73 20.2-7.07 3.12-12.68 9.5-14.44 17.07-1.35 5.08-0.36 10.34 0.58 15.4-16.6-16.93-41.39-24.82-64.76-21.7-2.86 0.2-6.04 0.98-8.52-0.93-10.29-5.99-23.31-11.04-34.97-5.95 0-16.465-15.896-25.692-30.67-32.39-1.67-10.91-3.87-21.74-5.83-32.6 11.22 4.72 23.25 7.05 35.05 9.88 2.56 0.49 4.27 2.65 6.14 4.3 9.77 9.52 20.4 18.55 32.99 24.12 6.47 2.69 13.84 4.96 20.74 2.41-5.576-13.426 1.139-5.704-8-17.01 2.78 0.83 5.58 1.62 8.45 2.12 3.03-2.53 6.91-3.35 10.79-3.26 1.64-2.06 3.26-4.14 4.9-6.2 0.98 2.05 1.97 4.1 2.94 6.16 4.24 1.45 8.58 3.38 11.01 7.38 14.421-4.48 24.429-10.847 33.39-33.38 6.39 2.02 13.04 0.3 19.4-0.99m-70.19 31.27c-0.1 1.12-0.18 2.25-0.24 3.39 1.74 0.32 3.5 0.58 5.27 0.78-0.05-1.33-0.09-2.64-0.14-3.95-1.64-0.1-3.27-0.18-4.89-0.22m-9.11 0.92c-0.05 1.37-0.07 2.75-0.05 4.13 1.64 0.06 3.31 0.1 4.98 0.11 0.03-1.07 0.06-2.13 0.11-3.19-1.69-0.37-3.37-0.73-5.04-1.05z"/>
 <path class="st0" d="m545.61 660.31c6.703 1.961 20.988 8.27 30.63-0.07-5.071 12.503-11.602 28.94-9.52 41.74-22.919 7.953-29.778 18.42-34.54 32.09 3.59 2.67 5.81 6.63 6.75 10.97 2.09 1.21 4.18 2.42 6.26 3.67-2.03 1.44-4.29 2.66-5.99 4.51-4.821 18.393-4.318 6.686-2.28 18.99-6.467-5.666-0.821-3.354-17.05-8.15-6.007 26.12 27.586 54.687 29 59.9 2.89 12.54 4.13 25.74 9.87 37.41l-1.12-1.46c-10.74-1.98-21.27-4.97-32.07-6.69-6.789-14.824-14.35-31.046-31.44-31.81 6.951-15.63-3.362-31.713-5.86-37.52-0.548-4.602 9.63-41.936-19.11-71.75 14.57 3.582 26.41 0.426 33.13-12.77 12.749 0.758 20.71 0.557 20.54-14.81 14.374-0.721 19.647-10.24 22.8-24.25m-14.93 86.24c0.01 1.57 0.05 3.16 0.1 4.75 1.27 0.15 2.54 0.28 3.83 0.42 0-1.76-0.03-3.5-0.11-5.24-1.29 0-2.56 0.02-3.82 0.07m-1.14 8.54c-0.15 1.85-0.2 3.72-0.15 5.59 1.24-0.02 2.49-0.05 3.75-0.12 0.12-1.16 0.26-2.31 0.41-3.45-1.29-0.77-2.63-1.45-4.01-2.02z"/>
 <path class="st0" d="m781.1 726.6c6.47 0.48 12.74-1.44 18.75-3.62-0.86 4.69-0.66 9.52 0.74 14.09-9.631 2.275-10.099 4.645-12.05 10.18-8.129 1.004-7.008 3.807-7.15 9.65-7.82 5.374-7.136 8.054-6.9 15.32-8.64-8.63-21.56-11.79-33.42-9.74-5.2-3.17-11.46-5.9-17.59-3.79-0.94-7.9-8.26-12.36-14.86-15.27-0.87-5.12-1.66-10.25-2.92-15.28 25.271 7.811 11.104 0.421 24.87 11.21 5.69 4.7 12.58 9.24 20.33 8.33-0.64-2.88-1.29-5.85-3.27-8.14 3.13 0.61 6.18-0.35 9.15-1.21 0.6-0.74 1.2-1.47 1.82-2.19 1.77 2.51 4.49 4 6.89 5.83 7.88-1.39 12.97-8.3 15.61-15.37m-28.2 14.91c-0.53 1.59 0.03 2.15 1.68 1.66 0.51-1.62-0.05-2.18-1.68-1.66m4.11-0.67c-1.13 1.49 1.55 2.88 2.53 1.59 1.1-1.54-1.54-2.96-2.53-1.59z"/>
</svg>
