<?xml version="1.0" standalone="no"?>
<!DOCTYPE svg PUBLIC "-//W3C//DTD SVG 20010904//EN"
 "http://www.w3.org/TR/2001/REC-SVG-20010904/DTD/svg10.dtd">
<svg version="1.0" xmlns="http://www.w3.org/2000/svg"
 width="1280.000000pt" height="1273.000000pt" viewBox="0 0 1280.000000 1273.000000"
 preserveAspectRatio="xMidYMid meet">
<g transform="translate(0.000000,1273.000000) scale(0.100000,-0.100000)"
fill="#000000" stroke="none">
<path d="M6360 12711 c-5 -11 -10 -35 -10 -55 0 -39 -18 -64 -124 -174 -220
-227 -480 -329 -766 -301 -203 20 -435 108 -661 250 -43 27 -83 50 -88 51 -5
2 -37 -38 -70 -88 -212 -321 -604 -554 -999 -594 -120 -12 -249 -1 -378 31
-49 13 -89 18 -93 13 -5 -5 -40 -104 -79 -220 -107 -320 -169 -434 -305 -559
-133 -124 -328 -195 -597 -216 -74 -5 -179 -7 -232 -4 -54 4 -98 4 -98 1 0 -4
-9 -41 -20 -84 -11 -42 -33 -158 -50 -257 -17 -99 -40 -214 -51 -255 -29 -107
-99 -244 -162 -321 -113 -136 -328 -264 -587 -350 -112 -37 -131 -46 -137 -67
-3 -13 -3 -88 1 -168 3 -79 9 -209 12 -288 5 -115 3 -159 -10 -217 -52 -234
-239 -487 -579 -786 l-59 -51 37 -92 c46 -118 90 -288 105 -414 15 -119 8
-321 -14 -426 -48 -220 -173 -487 -303 -647 -24 -29 -43 -55 -43 -58 0 -3 19
-29 43 -58 130 -160 255 -427 303 -647 22 -105 29 -307 14 -426 -15 -126 -59
-296 -105 -414 l-37 -92 59 -51 c340 -299 527 -552 579 -786 13 -58 15 -102
10 -217 -3 -79 -9 -209 -12 -288 -4 -80 -4 -155 -1 -168 6 -21 25 -30 137 -67
259 -86 474 -214 587 -350 63 -77 133 -214 162 -321 11 -41 34 -156 51 -255
17 -99 39 -215 50 -257 11 -43 20 -80 20 -84 0 -3 44 -3 98 1 53 3 158 1 232
-4 273 -22 465 -92 603 -221 131 -122 191 -234 298 -552 40 -117 76 -217 80
-222 4 -5 44 0 93 13 129 32 258 43 378 31 395 -40 787 -273 999 -594 33 -50
65 -90 70 -88 5 1 45 24 88 51 226 142 458 230 661 250 286 28 546 -74 766
-301 108 -112 124 -134 124 -177 0 -20 6 -46 14 -56 13 -18 14 -18 43 6 17 13
40 43 52 65 28 53 169 196 257 262 348 261 770 238 1275 -69 54 -33 101 -59
106 -59 5 0 17 17 28 37 96 182 341 402 571 514 199 96 361 134 574 133 135
-1 168 -4 254 -28 54 -15 101 -25 103 -23 2 3 38 103 79 223 116 339 193 475
326 584 170 137 407 200 753 200 l154 0 11 40 c5 22 14 57 19 78 6 20 24 120
42 222 17 102 42 223 56 269 91 314 309 509 733 652 69 23 131 47 139 53 11 9
12 42 6 191 -5 99 -9 250 -9 335 -1 138 2 163 23 225 71 208 174 350 447 613
l174 169 -19 46 c-31 72 -81 234 -104 337 -29 131 -31 414 -3 540 48 223 157
459 300 650 54 72 53 98 -2 173 -141 190 -252 427 -298 638 -21 100 -29 313
-15 430 17 145 64 317 135 490 5 12 -28 48 -124 135 -204 184 -349 359 -433
521 -86 168 -105 283 -82 509 19 185 20 354 3 376 -7 9 -65 33 -128 53 -240
78 -435 189 -554 315 -138 147 -192 284 -251 635 -14 88 -36 195 -47 238 l-20
77 -154 0 c-261 0 -455 35 -609 110 -224 109 -332 265 -475 685 -39 115 -72
211 -74 212 -2 2 -48 -8 -102 -23 -86 -24 -119 -27 -254 -28 -214 -1 -367 34
-565 129 -216 104 -432 288 -549 468 -31 48 -60 87 -65 87 -4 0 -35 -18 -68
-39 -169 -109 -375 -201 -543 -242 -124 -30 -329 -32 -435 -5 -143 37 -280
111 -400 215 -70 60 -195 200 -195 218 0 13 -60 73 -72 73 -4 0 -12 -9 -18
-19z m192 -265 c97 -94 219 -179 324 -225 298 -129 662 -89 1031 115 92 51
123 63 123 47 0 -4 -34 -137 -77 -295 l-76 -288 -71 -46 c-157 -100 -341 -177
-505 -210 -100 -20 -263 -15 -356 10 -160 44 -327 156 -447 299 l-48 58 0 310
c0 170 4 309 8 309 5 0 47 -38 94 -84z m-202 -258 l0 -312 -112 -110 c-165
-162 -293 -229 -489 -256 -177 -24 -383 21 -612 136 -107 54 -206 121 -217
146 -25 59 -157 578 -147 578 1 0 72 -35 157 -78 261 -132 446 -179 664 -169
252 11 444 98 641 289 50 48 96 88 103 88 9 0 12 -69 12 -312z m1813 125 c81
-101 225 -234 330 -303 312 -207 646 -282 995 -224 29 4 42 3 42 -5 0 -19
-289 -514 -311 -533 -10 -9 -51 -24 -89 -32 -333 -76 -728 46 -1011 312 -86
81 -176 191 -185 227 -3 11 26 137 65 280 38 143 75 279 81 303 6 23 15 42 20
42 5 0 33 -30 63 -67z m-3443 -5 c7 -24 43 -159 81 -300 38 -141 69 -263 69
-271 0 -8 -21 -43 -46 -78 -173 -235 -447 -409 -739 -470 -156 -32 -405 -21
-493 24 -16 8 -72 96 -173 270 -82 142 -149 263 -149 269 0 6 16 8 43 4 124
-17 317 -18 419 -1 350 58 691 257 898 524 30 39 60 71 67 71 7 0 17 -19 23
-42z m1989 -712 c166 -100 346 -139 532 -117 170 21 346 81 511 177 42 24 80
44 83 44 12 0 2 -48 -60 -280 -104 -389 -86 -344 -163 -394 -98 -64 -200 -112
-320 -154 -104 -35 -111 -36 -252 -37 -133 0 -151 2 -218 27 -110 40 -176 83
-279 183 l-93 90 0 326 c0 179 3 329 6 332 4 3 44 -28 89 -71 46 -42 119 -99
164 -126z m-359 -158 l0 -331 -83 -82 c-92 -91 -189 -154 -299 -193 -64 -23
-88 -26 -203 -26 -112 0 -142 4 -220 28 -103 31 -248 97 -352 162 -68 42 -74
49 -88 97 -84 298 -153 577 -142 577 1 0 63 -31 137 -68 142 -72 288 -124 404
-143 111 -19 305 -7 401 25 114 37 230 106 337 202 51 45 96 83 101 83 4 1 7
-148 7 -331z m3319 142 c31 -91 73 -200 93 -243 129 -271 322 -423 617 -487
89 -20 284 -40 384 -40 31 0 57 -4 57 -8 0 -4 -100 -108 -223 -230 l-223 -222
-95 0 c-232 0 -408 33 -549 101 -68 33 -102 59 -167 124 -71 72 -89 97 -136
196 -30 63 -78 184 -107 271 l-53 156 159 276 c100 173 164 275 173 274 8 -2
37 -71 70 -168z m-6297 -130 c87 -151 158 -278 158 -282 0 -30 -146 -412 -181
-475 -93 -165 -244 -276 -447 -330 -84 -22 -124 -26 -292 -30 l-195 -5 -219
220 c-128 129 -216 224 -212 231 5 7 48 11 119 11 277 0 519 70 684 196 149
114 239 262 339 559 30 88 56 166 59 173 3 8 10 12 17 10 6 -2 83 -127 170
-278z m4602 143 c196 -229 470 -388 756 -439 98 -17 281 -20 359 -4 69 13 71
13 71 -5 0 -13 -224 -411 -296 -527 -36 -58 -100 -73 -299 -72 -145 0 -168 3
-249 28 -162 49 -328 145 -442 254 -79 76 -144 159 -144 183 0 16 149 589 165
637 8 22 20 13 79 -55z m-2986 -284 c45 -169 82 -314 82 -323 0 -10 -20 -43
-44 -75 -130 -169 -350 -312 -573 -373 -108 -29 -337 -30 -433 -2 l-64 19
-164 283 c-90 156 -161 286 -158 289 3 4 41 1 84 -5 210 -32 440 4 659 104
164 74 362 228 463 359 35 45 46 53 55 43 7 -7 49 -151 93 -319z m4305 -365
c65 -183 120 -289 191 -373 158 -185 375 -267 725 -274 47 -1 86 -7 88 -12 2
-6 -102 -115 -230 -243 l-233 -232 -111 0 c-284 0 -465 59 -598 194 -85 86
-132 174 -200 378 l-48 143 148 255 c179 310 194 335 206 323 4 -4 33 -76 62
-159z m-5540 -155 l168 -290 -47 -142 c-26 -78 -68 -182 -93 -232 -80 -157
-205 -256 -381 -304 -92 -25 -290 -43 -379 -35 l-66 6 -227 227 c-126 124
-228 231 -228 238 0 10 24 13 88 13 280 0 517 75 664 210 115 105 190 239 272
488 21 61 43 112 49 112 7 0 88 -131 180 -291z m2776 184 c290 -248 592 -269
988 -67 68 34 125 59 127 55 3 -4 -29 -137 -71 -295 l-77 -287 -61 -38 c-94
-60 -212 -116 -300 -144 -238 -75 -446 -25 -625 151 l-58 57 -2 313 c0 171 2
312 6 312 4 0 37 -25 73 -57z m-180 -283 l-1 -310 -78 -73 c-134 -126 -260
-174 -437 -165 -121 6 -245 46 -380 120 -157 87 -143 62 -228 383 -41 153 -71
283 -67 287 5 5 55 -16 113 -46 199 -104 324 -139 499 -138 92 0 132 5 196 24
103 31 214 94 296 169 34 32 69 58 76 59 10 0 12 -63 11 -310z m1454 128 c176
-178 401 -294 636 -328 81 -12 250 -9 314 6 25 6 28 4 25 -13 -1 -11 -68 -134
-148 -272 l-145 -252 -50 -14 c-238 -70 -520 -2 -743 178 -77 63 -152 152
-152 181 0 17 139 551 155 594 2 6 7 12 11 12 3 0 47 -42 97 -92z m-2619 -239
c42 -158 76 -296 76 -307 0 -32 -134 -167 -230 -231 -145 -97 -316 -151 -473
-151 -80 0 -199 23 -230 43 -21 14 -307 502 -307 524 0 16 -2 16 116 2 293
-35 621 92 854 330 69 71 98 94 107 87 6 -6 45 -140 87 -297z m5725 168 c5
-13 23 -106 41 -208 62 -366 116 -500 264 -656 121 -128 300 -236 529 -318 43
-15 76 -33 74 -39 -5 -17 -529 -316 -553 -316 -31 0 -182 54 -281 100 -284
132 -422 303 -482 595 -28 136 -71 381 -71 402 0 20 438 463 458 463 7 0 16
-10 21 -23z m-8765 -226 c223 -223 229 -230 223 -263 -98 -567 -120 -632 -277
-788 -115 -115 -292 -212 -492 -270 l-75 -22 -272 157 c-149 87 -270 162 -268
169 2 6 49 27 104 47 141 51 307 140 402 215 104 82 182 177 236 289 54 110
84 222 125 464 32 187 43 231 57 231 5 0 111 -103 237 -229z m6740 -198 c63
-184 110 -267 201 -359 132 -134 262 -184 528 -206 81 -6 147 -14 147 -17 0
-4 -99 -105 -219 -225 l-219 -219 -153 6 c-169 6 -236 20 -339 70 -128 63
-206 173 -281 394 -31 93 -36 119 -27 137 61 118 304 526 313 526 7 0 29 -48
49 -107z m-4744 -202 l152 -263 -42 -122 c-56 -162 -93 -229 -165 -302 -107
-109 -228 -150 -468 -161 l-138 -6 -221 220 c-132 132 -218 225 -214 232 5 7
40 11 92 11 332 0 574 127 695 365 25 50 61 135 79 190 38 116 47 132 65 113
7 -7 81 -132 165 -277z m2392 130 c119 -97 244 -141 396 -141 138 0 246 29
398 105 88 44 127 59 130 50 3 -7 -18 -100 -46 -206 -86 -325 -74 -294 -138
-336 -88 -56 -230 -121 -307 -139 -86 -20 -220 -14 -285 12 -54 21 -130 69
-185 117 l-40 35 -4 276 c-2 205 0 276 9 276 6 0 38 -22 72 -49z m-183 -252
l-2 -270 -59 -53 c-140 -127 -312 -164 -493 -107 -88 28 -130 47 -232 108
-106 62 -85 20 -172 349 -50 187 -57 224 -45 224 4 0 39 -18 78 -39 325 -179
626 -172 849 19 32 28 63 47 68 44 6 -3 9 -112 8 -275z m4069 35 c39 -222 76
-342 139 -443 106 -170 262 -285 518 -382 55 -21 100 -43 100 -50 0 -7 -128
-87 -284 -177 l-284 -164 -61 18 c-256 75 -450 210 -535 374 -49 93 -69 166
-107 393 l-28 168 243 242 c213 212 244 240 255 225 6 -9 27 -101 44 -204z
m-7734 -53 l239 -239 -6 -39 c-37 -246 -80 -431 -119 -508 -81 -160 -244 -281
-496 -369 -57 -20 -107 -34 -110 -33 -131 70 -572 332 -572 341 0 6 30 22 68
34 170 59 333 152 431 246 154 147 207 272 266 616 30 182 33 190 48 190 7 0
120 -108 251 -239z m4908 154 c116 -113 264 -198 428 -247 78 -23 264 -34 338
-20 43 8 55 7 59 -4 3 -7 -53 -114 -124 -236 l-129 -223 -54 -18 c-158 -54
-355 -24 -533 81 -82 48 -207 168 -207 198 0 22 127 509 137 527 8 14 19 7 85
-58z m-2288 -7 c53 -189 126 -470 126 -485 0 -28 -62 -96 -139 -155 -78 -59
-181 -110 -271 -134 -89 -24 -245 -23 -324 2 l-59 19 -128 220 c-70 121 -128
228 -128 239 -1 16 4 17 32 12 81 -17 185 -18 273 -2 197 34 368 121 509 258
44 42 83 78 87 78 4 0 14 -24 22 -52z m3201 -415 c89 -249 205 -374 400 -432
74 -22 208 -41 287 -41 32 0 48 -4 48 -12 0 -7 -84 -97 -187 -200 l-188 -188
-103 0 c-239 0 -393 69 -480 213 -41 67 -105 245 -97 266 18 46 271 471 281
471 6 0 24 -35 39 -77z m-4082 -84 c44 -74 105 -181 138 -239 l59 -106 -29
-87 c-61 -178 -131 -272 -244 -326 -85 -40 -161 -54 -300 -55 l-117 -1 -192
192 c-105 106 -190 195 -187 197 2 2 60 9 129 15 69 6 152 18 185 27 209 55
342 190 426 432 18 52 37 91 43 89 6 -2 46 -64 89 -138z m5433 -86 c32 -180
57 -269 98 -351 89 -173 256 -302 504 -388 28 -10 52 -24 52 -30 0 -15 -505
-307 -540 -312 -14 -2 -59 9 -100 24 -253 90 -390 213 -444 394 -19 62 -66
315 -66 352 0 33 445 477 461 461 6 -6 22 -74 35 -150z m-6636 -98 l224 -224
-23 -136 c-29 -173 -45 -235 -81 -313 -38 -81 -140 -183 -234 -235 -73 -39
-244 -107 -271 -107 -28 0 -545 304 -543 319 2 7 23 20 48 28 93 30 266 122
332 177 158 131 216 247 264 526 32 188 32 190 47 190 7 0 113 -101 237 -225z
m3312 166 c107 -73 180 -95 308 -95 127 -1 209 21 349 95 62 33 97 46 101 38
4 -6 -5 -56 -20 -112 -15 -56 -38 -139 -50 -185 -14 -52 -29 -86 -39 -90 -9
-3 -47 -25 -86 -47 -38 -23 -101 -55 -140 -71 -62 -25 -82 -28 -180 -29 -105
0 -114 2 -175 33 -36 17 -83 47 -104 66 l-40 34 -4 206 c-3 113 -2 206 1 206
4 0 39 -22 79 -49z m-916 -30 c134 -67 225 -91 345 -92 134 0 225 31 330 113
20 15 42 28 48 28 9 0 11 -55 10 -201 l-3 -200 -45 -41 c-139 -124 -317 -139
-514 -43 -63 30 -176 91 -184 98 -8 8 -101 372 -97 379 7 11 1 13 110 -41z
m1812 -76 c92 -78 219 -146 328 -176 83 -23 233 -31 307 -16 27 6 37 5 37 -5
0 -7 -42 -86 -92 -175 -90 -158 -94 -163 -138 -179 -25 -8 -83 -18 -130 -21
-109 -6 -196 13 -303 69 -88 46 -211 154 -203 179 3 8 26 93 51 189 52 198 52
200 60 200 3 0 40 -29 83 -65z m-1915 -157 c32 -120 47 -195 43 -212 -9 -35
-126 -127 -217 -171 -77 -36 -186 -65 -252 -65 -46 0 -177 28 -194 42 -16 13
-193 321 -193 336 0 7 35 9 108 5 66 -4 135 -1 177 6 142 25 288 99 398 202
29 27 58 48 66 46 10 -1 31 -64 64 -189z m6383 108 c3 -13 -2 -102 -11 -197
-19 -195 -16 -350 9 -444 25 -95 110 -257 194 -368 42 -56 145 -171 230 -255
85 -84 152 -156 148 -159 -3 -3 -144 -43 -313 -89 -292 -78 -309 -82 -333 -67
-50 32 -318 310 -369 383 -96 136 -152 272 -166 400 -3 30 1 129 10 220 8 91
15 190 15 221 l0 56 278 161 c152 88 283 161 289 161 7 1 15 -10 19 -23z
m-10686 -164 l275 -159 3 -59 c1 -32 9 -133 17 -224 18 -195 10 -281 -36 -401
-58 -150 -217 -355 -407 -526 -51 -46 -100 -83 -110 -83 -27 0 -604 158 -614
168 -5 5 56 74 155 173 268 269 381 447 423 667 18 96 18 178 -3 393 -16 177
-15 209 10 209 7 0 136 -71 287 -158z m6965 -147 c85 -235 232 -337 515 -360
47 -4 89 -10 94 -12 4 -3 -54 -68 -129 -143 l-138 -138 -56 -7 c-73 -8 -217
10 -289 37 -88 33 -160 111 -201 216 -53 137 -56 120 55 312 54 93 103 170
110 170 6 0 24 -34 39 -75z m-3400 -126 l99 -171 -13 -45 c-21 -81 -77 -189
-119 -231 -79 -79 -182 -112 -351 -112 l-105 0 -140 140 c-103 102 -137 142
-128 149 7 4 59 11 115 14 164 9 303 67 381 159 39 45 97 152 116 213 14 45
29 67 40 60 4 -2 51 -81 105 -176z m4559 11 c37 -200 64 -269 144 -369 63 -78
194 -163 337 -216 33 -13 60 -29 60 -36 0 -15 -451 -279 -478 -279 -28 0 -176
60 -241 98 -83 49 -152 120 -186 195 -30 64 -85 325 -75 356 9 30 394 406 405
395 5 -5 21 -70 34 -144z m-2174 118 c0 -16 -106 -430 -136 -531 -4 -13 -12
-17 -25 -14 -12 3 -46 -10 -87 -34 -161 -94 -299 -102 -414 -23 -36 25 -39 31
-33 60 3 18 1 35 -5 39 -14 8 -14 515 0 515 6 0 29 -13 51 -30 102 -74 247
-97 387 -62 45 12 117 39 159 61 91 46 103 49 103 19z m-3446 -197 l198 -198
-17 -99 c-25 -145 -43 -211 -75 -274 -54 -107 -185 -202 -358 -259 -74 -25
-39 -39 -335 132 -114 66 -206 124 -204 130 2 6 37 25 78 42 134 54 201 97
282 176 115 114 148 198 202 512 3 20 11 37 18 37 7 0 102 -89 211 -199z
m2009 160 c100 -57 201 -84 307 -84 106 1 174 20 252 73 23 16 49 30 56 30 17
0 17 -431 0 -459 -9 -15 -9 -25 0 -46 19 -41 14 -61 -19 -89 -45 -38 -81 -55
-141 -66 -75 -15 -147 1 -258 57 -52 27 -105 47 -117 45 -17 -2 -24 4 -29 25
-4 15 -38 141 -75 278 -36 138 -65 253 -62 258 8 13 33 7 86 -22z m5521 -82
c0 -41 -4 -146 -9 -234 -10 -194 3 -266 69 -402 65 -132 134 -222 300 -391 89
-91 146 -156 140 -161 -5 -5 -153 -47 -329 -94 -291 -78 -322 -85 -342 -72
-46 31 -213 198 -274 276 -123 154 -178 283 -182 419 -3 132 15 389 28 400 30
25 581 339 590 336 6 -1 10 -35 9 -77z m-9378 -116 c159 -91 292 -171 296
-177 4 -6 5 -20 2 -31 -2 -11 2 -93 10 -183 24 -269 -4 -373 -152 -572 -68
-91 -277 -298 -308 -306 -13 -3 -137 25 -291 66 -352 94 -373 100 -373 109 0
5 64 73 143 152 212 216 313 370 359 551 22 87 22 140 2 456 -6 86 -5 102 8
102 8 0 145 -75 304 -167z m5417 121 c29 -25 93 -65 142 -90 115 -57 217 -78
338 -69 56 4 87 2 87 -4 0 -6 -63 -120 -140 -253 -113 -196 -145 -243 -163
-245 -12 -1 -50 -7 -84 -14 -79 -16 -157 -3 -250 40 -74 35 -153 96 -153 119
0 16 139 541 147 555 9 15 26 6 76 -39z m-1690 13 c2 -7 37 -135 78 -285 l72
-272 -34 -36 c-19 -19 -71 -54 -117 -76 -72 -36 -93 -42 -165 -46 -49 -2 -106
2 -142 11 l-60 14 -137 238 c-76 131 -138 243 -138 249 0 8 35 10 113 8 82 -3
129 1 176 13 87 22 204 83 276 143 66 55 71 58 78 39z m2307 -292 c46 -122
115 -214 196 -261 55 -32 183 -64 260 -64 35 0 66 -5 70 -11 4 -7 -76 -94
-192 -210 l-199 -199 -91 0 c-184 0 -282 56 -337 193 -32 79 -41 50 96 287 49
85 107 185 129 223 21 37 43 67 49 67 5 0 14 -11 19 -25z m-2824 -256 c75
-129 136 -244 136 -255 1 -36 -51 -137 -90 -177 -52 -53 -125 -78 -250 -84
l-103 -6 -200 199 c-109 109 -198 203 -196 209 2 5 50 15 108 21 209 24 316
94 388 257 15 34 31 71 35 81 6 17 8 18 22 5 8 -9 76 -121 150 -250z m5498
171 c-1 -25 -5 -115 -9 -200 -9 -181 0 -235 64 -365 52 -106 121 -195 260
-338 70 -72 111 -121 105 -126 -5 -5 -144 -46 -309 -90 -348 -93 -299 -97
-436 39 -185 186 -270 344 -268 499 0 36 6 122 12 190 l12 125 270 157 c149
87 277 157 285 155 11 -1 15 -13 14 -46z m-1730 18 c3 -13 14 -70 26 -128 41
-212 124 -318 324 -415 64 -31 115 -62 113 -68 -5 -16 -319 -196 -343 -197
-51 -1 -201 66 -268 119 -87 70 -125 147 -152 315 l-17 107 144 145 c79 79
149 144 156 144 7 0 15 -10 17 -22z m-6345 -140 c135 -78 258 -149 272 -159
25 -17 26 -23 39 -192 12 -159 12 -180 -4 -243 -33 -131 -114 -251 -274 -406
-56 -54 -109 -98 -119 -98 -10 0 -128 29 -263 65 -327 87 -350 94 -350 105 0
5 49 57 108 117 182 182 281 335 318 488 16 70 15 208 -2 398 -6 60 -5 67 11
67 10 0 129 -64 264 -142z m1630 -12 l144 -144 -17 -102 c-27 -160 -61 -236
-135 -303 -47 -42 -150 -96 -233 -122 l-57 -18 -170 97 c-94 54 -171 104 -171
111 0 7 30 25 68 40 222 89 330 219 374 451 25 136 25 134 40 134 7 0 78 -65
157 -144z m2855 -31 c5 -13 -87 -375 -100 -397 -3 -4 -13 -3 -23 4 -14 9 -34
2 -105 -33 -76 -37 -96 -43 -154 -43 -89 -1 -138 25 -134 71 2 17 -2 34 -7 38
-12 7 -16 345 -4 345 3 0 36 -12 72 -27 113 -46 254 -32 381 37 43 23 66 25
74 5z m-1086 -34 c138 -70 274 -80 384 -29 31 14 59 24 62 20 12 -11 6 -278
-6 -290 -9 -9 -8 -21 2 -51 17 -52 9 -68 -47 -93 -72 -32 -160 -22 -260 29
-61 32 -82 38 -95 29 -9 -5 -19 -8 -22 -6 -2 3 -28 92 -56 198 -41 153 -49
196 -40 208 16 18 11 19 78 -15z m1204 -74 c26 -19 75 -47 110 -62 55 -25 78
-29 181 -33 87 -3 117 -8 117 -17 0 -8 -44 -89 -97 -181 l-98 -167 -105 -4
c-76 -3 -116 0 -146 10 -53 19 -123 64 -131 83 -5 14 81 351 99 387 12 23 16
22 70 -16z m-1283 -190 c29 -106 49 -199 46 -208 -8 -22 -103 -76 -158 -90
-28 -7 -72 -9 -110 -5 -34 4 -74 7 -89 7 -23 0 -36 17 -123 169 -54 93 -95
176 -92 183 4 11 22 13 79 9 112 -7 252 37 335 105 53 43 56 39 112 -170z
m2666 106 c16 -93 47 -200 71 -242 43 -74 118 -138 221 -188 51 -25 95 -49 98
-53 3 -5 -106 -72 -241 -150 -277 -160 -262 -156 -379 -102 -121 57 -172 127
-200 275 -8 42 -10 78 -5 87 14 26 405 410 418 410 6 0 14 -17 17 -37z m1455
9 c0 -16 -5 -77 -11 -135 -24 -238 42 -393 267 -625 51 -53 94 -100 94 -104 0
-12 -11 -15 -280 -87 l-263 -70 -48 40 c-111 93 -219 233 -260 337 -20 49 -23
73 -21 167 1 61 6 137 10 170 l7 60 235 137 c129 75 243 137 253 137 12 1 17
-7 17 -27z m-6815 -135 c116 -66 217 -126 226 -134 20 -17 42 -255 29 -328
-10 -62 -40 -131 -82 -193 -50 -74 -229 -252 -252 -252 -41 1 -530 137 -534
149 -2 7 43 60 100 119 224 230 281 370 256 628 -6 67 -8 129 -5 138 8 20 -14
31 262 -127z m1422 -69 c187 -187 203 -206 203 -238 0 -45 -26 -153 -45 -190
-35 -68 -135 -138 -242 -170 l-43 -13 -239 137 c-132 76 -245 144 -251 151 -9
10 9 23 84 58 164 78 247 178 281 342 9 44 18 90 21 103 2 12 10 22 17 22 6 0
103 -91 214 -202z m3021 29 c25 -56 74 -112 127 -143 45 -26 155 -54 218 -54
23 0 37 -5 37 -13 0 -7 -62 -74 -137 -149 l-138 -136 -88 3 c-121 5 -185 35
-227 108 -16 29 -30 59 -30 67 0 9 21 51 46 95 131 226 155 265 164 265 5 0
18 -19 28 -43z m-2194 -165 c93 -163 98 -173 87 -203 -17 -50 -58 -97 -104
-121 -32 -17 -65 -23 -141 -26 l-98 -4 -134 133 c-74 74 -134 139 -134 145 0
14 32 24 80 24 43 0 124 21 167 44 48 24 99 80 129 137 14 28 30 49 37 47 7
-3 56 -81 111 -176z m1475 40 c8 -14 -8 -87 -62 -287 -69 -260 -86 -301 -108
-262 -8 14 -17 13 -72 -14 -72 -34 -127 -39 -127 -11 0 10 -7 27 -15 38 -12
15 -14 65 -15 268 l0 249 33 -9 c17 -5 73 -9 122 -9 77 0 98 4 145 27 66 32
86 34 99 10z m-669 -69 c43 -3 80 0 109 10 25 9 48 14 53 11 4 -3 8 -105 8
-226 0 -189 -2 -224 -16 -239 -15 -16 -14 -20 3 -49 18 -31 18 -32 -2 -47 -27
-20 -82 -12 -146 22 -49 25 -52 25 -70 9 -12 -11 -23 -14 -28 -8 -5 5 -41 130
-81 278 -66 248 -70 269 -55 286 15 17 19 16 88 -13 46 -19 96 -32 137 -34z
m3186 -95 l-1 -163 33 -70 c41 -86 93 -157 191 -258 45 -47 71 -81 65 -86 -5
-5 -96 -32 -202 -60 l-193 -51 -29 20 c-46 32 -162 163 -197 222 -53 87 -66
158 -54 289 6 62 13 114 16 117 16 17 342 201 356 201 13 1 15 -21 15 -161z
m-5739 39 c205 -119 190 -97 195 -288 3 -105 3 -106 -36 -185 -30 -60 -61
-101 -134 -176 -61 -63 -103 -98 -116 -98 -12 0 -97 20 -191 45 -209 56 -205
55 -205 64 0 4 36 45 81 91 101 105 174 215 201 304 18 61 20 85 15 201 -5
115 -3 145 9 145 1 0 83 -46 181 -103z m8855 68 c3 -3 -10 -54 -28 -112 -60
-187 -78 -306 -78 -498 0 -136 5 -190 22 -272 41 -189 120 -377 236 -561 31
-49 56 -92 56 -96 0 -3 -149 -5 -332 -4 l-332 3 -48 70 c-100 145 -183 333
-225 505 -25 105 -25 371 0 490 22 103 85 296 101 309 10 8 583 167 612 170 6
1 13 -1 16 -4z m-5518 -39 c61 -35 141 -56 218 -56 50 0 70 -4 74 -14 6 -15
-273 -506 -287 -506 -4 0 -11 4 -14 10 -3 6 -30 7 -63 4 -61 -7 -132 14 -132
37 0 17 128 499 140 527 12 27 14 27 64 -2z m-6326 -65 c161 -43 298 -84 306
-90 18 -15 79 -201 103 -311 14 -65 18 -126 17 -255 -1 -187 -18 -275 -83
-441 -36 -90 -139 -275 -183 -328 l-29 -36 -323 0 c-177 0 -325 3 -328 6 -4 3
21 49 55 102 112 179 187 360 229 556 17 79 21 136 22 266 0 187 -19 307 -78
493 -18 58 -31 109 -28 112 9 9 22 6 320 -74z m5331 -212 c57 -212 70 -274 60
-285 -17 -21 -76 -33 -149 -30 l-65 2 -138 239 c-155 267 -156 272 -69 267 61
-4 163 21 217 53 22 13 47 24 56 25 12 0 32 -59 88 -271z m2043 138 c10 -38
27 -85 37 -106 28 -53 102 -118 177 -153 36 -17 63 -35 62 -40 -2 -6 -80 -55
-173 -109 -183 -106 -173 -104 -265 -63 -77 35 -128 87 -145 149 -31 115 -41
92 117 252 78 79 149 142 157 141 8 -2 22 -32 33 -71z m-3045 -89 c158 -158
157 -156 128 -256 -20 -67 -59 -111 -129 -145 -101 -50 -96 -51 -286 59 -93
54 -170 102 -170 106 0 4 32 24 71 43 119 61 182 139 209 260 14 64 18 75 27
75 4 0 72 -64 150 -142z m6798 72 c3 -5 -8 -53 -24 -107 -51 -165 -65 -254
-65 -413 -1 -80 5 -178 13 -220 29 -162 105 -351 207 -516 24 -39 44 -76 44
-82 0 -9 -89 -12 -345 -12 l-344 0 -29 43 c-102 149 -171 307 -203 461 -39
188 -15 427 62 621 l24 59 320 87 c367 100 332 92 340 79z m-2844 -118 c-5
-176 32 -260 180 -417 43 -45 69 -79 63 -85 -11 -11 -529 -150 -559 -150 -31
0 -155 132 -190 203 -24 51 -27 67 -26 153 0 52 4 102 9 110 10 18 503 305
517 300 6 -1 8 -46 6 -114z m-7551 13 c215 -58 319 -90 328 -102 7 -10 26 -59
42 -110 75 -235 80 -444 14 -661 -28 -93 -116 -272 -169 -344 l-35 -48 -345 0
c-190 0 -345 4 -345 8 0 5 26 51 57 103 71 117 113 209 151 330 43 137 56 226
56 384 -1 152 -24 291 -70 427 -27 81 -29 98 -11 98 6 0 154 -38 327 -85z
m5958 39 c39 -55 112 -92 203 -102 34 -4 64 -12 66 -17 2 -6 -86 -98 -194
-206 l-198 -196 -78 7 c-61 5 -82 12 -102 30 -14 13 -25 30 -25 38 0 22 273
492 286 492 5 0 25 -21 42 -46z m-3186 -104 c147 -84 248 -148 255 -162 8 -13
13 -61 13 -114 0 -81 -3 -97 -30 -151 -32 -64 -138 -188 -170 -198 -18 -6
-543 129 -572 146 -10 6 -1 20 33 56 79 82 141 165 173 233 29 61 31 73 33
190 2 149 1 140 12 140 5 0 119 -63 253 -140z m1518 -112 c74 -128 135 -244
135 -257 0 -40 -43 -63 -130 -69 l-77 -5 -194 194 c-107 107 -194 199 -194
204 0 6 33 16 73 22 95 13 139 35 190 94 23 27 47 49 52 49 6 0 71 -105 145
-232z m5337 -15 c-103 -337 -62 -648 126 -963 25 -41 43 -78 40 -82 -2 -5
-148 -8 -323 -8 l-319 0 -25 33 c-184 244 -235 566 -135 864 11 35 28 72 37
83 13 15 93 40 312 99 169 45 299 75 304 70 6 -5 -1 -43 -17 -96z m-8915 2
c156 -42 292 -79 304 -84 25 -11 77 -159 95 -272 17 -111 6 -275 -26 -383 -31
-106 -105 -253 -150 -302 l-32 -34 -317 0 c-253 0 -316 3 -316 13 0 7 14 35
30 61 115 181 190 424 190 620 0 85 -28 258 -56 345 -25 81 -30 111 -15 111 5
0 137 -34 293 -75z m5570 -33 c21 -70 73 -129 148 -167 27 -14 50 -31 50 -38
0 -6 -109 -74 -241 -150 -239 -137 -241 -138 -277 -126 -70 22 -122 76 -122
125 0 22 388 414 410 414 10 0 21 -20 32 -58z m-2263 -166 c187 -188 203 -206
197 -231 -4 -15 -14 -38 -22 -51 -18 -27 -90 -64 -125 -64 -30 1 -483 263
-487 282 -1 8 15 22 40 33 87 38 127 89 173 223 2 6 8 12 12 12 5 0 100 -92
212 -204z m2943 49 c4 -111 31 -173 119 -270 33 -37 58 -72 57 -77 -2 -6 -44
-22 -94 -35 -49 -13 -138 -37 -199 -53 l-109 -30 -59 60 c-32 33 -67 80 -77
103 -26 56 -27 166 -2 195 22 27 345 213 354 204 3 -4 8 -47 10 -97z m-1652
32 c0 -37 -202 -782 -216 -797 -12 -12 -14 49 -14 398 l0 412 48 0 c26 1 70 9
97 19 45 16 52 17 68 3 9 -8 17 -24 17 -35z m-2019 -57 c96 -55 177 -108 181
-118 16 -40 8 -137 -16 -188 -26 -55 -119 -154 -145 -154 -30 1 -372 97 -383
108 -8 8 5 28 44 72 31 33 71 89 89 123 30 55 34 72 37 160 2 53 8 97 12 97 4
0 86 -45 181 -100z m5653 81 c3 -5 -1 -28 -10 -52 -37 -106 -49 -184 -48 -324
0 -193 37 -329 134 -495 22 -38 40 -73 40 -79 0 -8 -88 -11 -284 -11 l-285 0
-19 25 c-34 42 -99 177 -122 250 -45 145 -36 346 24 494 l22 56 265 72 c297
81 276 76 283 64z m-4116 -17 c20 -9 62 -17 92 -18 l55 -3 3 -407 c2 -311 -1
-407 -10 -404 -10 4 -58 172 -187 660 -35 132 -37 149 -24 167 17 25 23 26 71
5z m-3446 -69 c134 -36 253 -69 265 -74 26 -12 56 -88 79 -202 19 -97 15 -237
-11 -334 -19 -69 -84 -206 -119 -250 l-24 -30 -286 -3 c-159 -2 -286 1 -286 6
0 5 20 44 45 88 92 160 127 290 129 469 1 134 -12 226 -45 324 -18 52 -18 71
1 71 5 0 118 -29 252 -65z m4118 6 c36 -5 46 -10 48 -28 3 -20 -300 -559 -333
-593 -13 -12 -15 -12 -15 5 0 22 156 611 166 627 4 6 23 7 48 3 22 -4 61 -11
86 -14z m-723 -316 c46 -171 83 -319 83 -330 0 -17 -2 -17 -14 -5 -25 27 -336
571 -336 589 0 28 21 41 70 42 25 0 54 4 65 9 11 5 26 8 34 7 10 -1 40 -95 98
-312z m3533 219 c0 -9 -10 -52 -22 -97 -16 -62 -21 -112 -22 -202 0 -147 17
-221 85 -362 27 -56 49 -107 49 -113 0 -6 -72 -10 -209 -10 l-210 0 -20 29
c-35 49 -89 172 -107 241 -22 85 -14 237 16 335 12 39 26 75 31 80 9 9 366
112 397 114 6 1 12 -6 12 -15z m-6351 -64 c102 -27 190 -55 197 -62 23 -24 55
-153 61 -243 3 -62 0 -113 -11 -165 -20 -94 -92 -240 -126 -257 -29 -15 -420
-19 -420 -5 0 5 20 49 45 99 66 132 88 223 88 368 0 92 -5 139 -21 202 -25 94
-27 113 -9 113 6 0 95 -22 196 -50z m3661 30 c14 -11 51 -25 83 -32 31 -7 57
-17 57 -23 0 -11 -471 -485 -483 -485 -4 0 -7 4 -7 10 0 14 311 550 319 550 3
0 17 -9 31 -20z m900 -50 c0 -69 32 -146 86 -208 25 -28 44 -57 42 -64 -3 -7
-126 -45 -274 -85 -209 -57 -274 -71 -292 -63 -12 5 -36 31 -52 57 -38 59 -41
116 -7 137 68 45 474 276 485 276 8 0 12 -16 12 -50z m-1883 -233 c85 -148
152 -274 150 -280 -6 -16 -488 464 -485 483 2 9 21 17 52 22 28 4 61 16 75 27
14 11 32 19 40 18 7 -1 83 -123 168 -270z m-817 108 c113 -65 213 -125 223
-133 19 -17 22 -57 8 -95 -15 -39 -71 -97 -94 -97 -15 0 -430 106 -529 136
-26 8 -22 21 21 73 54 65 82 125 88 190 7 85 8 86 45 63 18 -11 125 -73 238
-137z m3984 3 c-22 -87 -25 -247 -5 -328 7 -30 33 -97 57 -148 30 -64 39 -94
31 -98 -7 -2 -143 -3 -302 -2 l-289 3 -23 33 c-50 74 -67 140 -67 257 -1 108
19 205 45 221 25 15 555 151 563 144 5 -5 0 -40 -10 -82z m-5270 -12 c202 -54
273 -77 282 -92 22 -32 44 -135 44 -199 -1 -75 -14 -133 -47 -208 -39 -87 -41
-87 -369 -87 -189 0 -274 3 -274 11 0 6 15 43 34 82 19 40 42 101 52 137 23
85 23 252 1 336 -20 74 -21 94 -4 94 6 -1 133 -34 281 -74z m3295 -5 c25 -26
55 -53 66 -59 18 -10 18 -13 5 -25 -15 -15 -554 -327 -564 -327 -24 0 22 53
211 242 120 120 222 218 226 218 5 0 30 -22 56 -49z m-1320 -195 c123 -123
222 -229 220 -235 -4 -12 -571 309 -577 327 -1 5 13 20 33 32 20 12 48 40 62
61 14 22 28 39 32 39 3 0 107 -101 230 -224z m2654 117 c3 -5 -2 -39 -10 -78
-20 -94 -12 -201 22 -291 15 -38 29 -79 32 -91 l5 -23 -211 0 c-239 0 -221 -6
-257 90 -22 58 -23 199 -2 255 l15 40 184 51 c192 54 215 59 222 47z m-4050
-72 c98 -26 182 -52 187 -57 13 -13 40 -123 40 -164 0 -19 -6 -58 -14 -85 -32
-120 -43 -125 -288 -125 -207 0 -205 -1 -172 62 56 108 66 243 29 391 -6 24
-4 27 16 27 13 0 104 -22 202 -49z m2837 -41 c0 -9 14 -38 31 -64 16 -27 27
-52 22 -56 -8 -8 -602 -170 -623 -170 -35 0 22 38 270 181 247 142 276 157
288 142 6 -9 12 -24 12 -33z m-1547 -131 c257 -148 296 -173 286 -184 -3 -2
-124 27 -270 66 -355 94 -369 98 -369 109 0 6 14 29 30 52 17 22 30 49 30 59
0 25 11 49 21 49 6 0 128 -68 272 -151z m2270 74 c-13 -75 -6 -173 16 -237 12
-33 21 -63 21 -68 0 -4 -133 -8 -295 -8 l-295 0 -11 28 c-19 46 -22 115 -7
152 l14 35 265 72 c145 39 272 72 282 72 16 1 17 -4 10 -46z m-2998 -53 c172
-46 264 -75 272 -86 19 -26 27 -83 17 -122 -17 -67 -33 -70 -341 -71 -150 -1
-273 1 -273 4 0 3 9 34 21 68 18 52 20 79 17 170 -4 93 -2 107 12 107 8 0 132
-31 275 -70z m2362 -145 c1 -39 3 -79 5 -90 3 -20 -3 -20 -324 -23 -326 -2
-380 3 -285 29 468 129 574 157 587 155 11 -1 15 -18 17 -71z m-1704 -30 c343
-92 317 -84 317 -96 0 -6 -123 -8 -317 -7 -311 3 -318 3 -315 23 1 11 3 47 4
80 1 65 4 75 20 75 5 0 137 -34 291 -75z m-4905 -211 c44 -53 147 -238 183
-328 65 -166 82 -254 83 -441 1 -191 -11 -265 -71 -448 -24 -74 -43 -113 -57
-122 -29 -18 -595 -168 -611 -161 -10 3 -5 29 21 112 59 187 78 307 78 494 -1
130 -5 187 -22 266 -42 196 -117 377 -229 556 -34 53 -59 99 -55 102 3 3 151
6 328 6 l323 0 29 -36z m787 -11 c53 -73 141 -252 169 -345 66 -217 61 -426
-14 -661 -16 -51 -35 -100 -42 -110 -14 -19 -653 -196 -665 -184 -3 4 8 53 25
110 51 166 65 257 66 412 0 159 -13 249 -56 384 -38 121 -80 213 -151 330 -31
52 -57 98 -57 103 0 4 155 8 345 8 l345 0 35 -47z m720 13 c45 -49 119 -196
150 -302 32 -108 43 -272 26 -383 -18 -113 -70 -261 -95 -272 -46 -19 -597
-161 -603 -155 -4 4 -1 26 5 49 65 226 81 357 63 512 -20 176 -86 364 -179
509 -18 28 -32 56 -32 63 0 10 63 13 316 13 l317 0 32 -34z m661 -1 c35 -44
100 -181 119 -250 26 -97 30 -237 11 -334 -21 -105 -53 -189 -74 -200 -42 -21
-524 -143 -533 -134 -6 6 -2 30 9 64 34 98 47 190 46 324 -2 179 -37 309 -129
469 -25 44 -45 83 -45 88 0 5 127 8 286 6 l286 -3 24 -30z m484 22 c34 -17
106 -163 126 -257 11 -50 14 -104 11 -161 -5 -105 -42 -236 -71 -254 -30 -18
-385 -110 -393 -101 -4 3 4 50 17 104 19 76 24 122 24 212 -2 140 -24 234 -89
363 -25 50 -45 94 -45 99 0 14 391 10 420 -5z m672 -1 c57 -24 107 -156 108
-281 0 -65 -23 -167 -44 -200 -10 -15 -76 -37 -290 -94 -152 -40 -280 -71
-283 -67 -4 3 2 41 12 84 25 100 25 253 1 342 -10 36 -33 97 -52 137 -19 39
-34 76 -34 82 0 18 538 15 582 -3z m507 -2 c17 -8 36 -25 42 -37 18 -32 39
-118 39 -157 0 -41 -27 -151 -40 -164 -11 -11 -357 -106 -389 -106 -20 0 -22
3 -16 27 37 148 27 283 -29 391 -33 63 -35 62 172 62 152 0 195 -3 221 -16z
m666 -3 c47 -28 60 -124 22 -175 -8 -11 -100 -40 -272 -86 -143 -39 -267 -70
-275 -70 -14 0 -16 14 -12 108 3 90 1 117 -17 169 -12 34 -21 65 -21 68 0 3
123 5 273 4 240 0 276 -3 302 -18z m725 10 c0 -12 26 -4 -319 -96 -156 -42
-290 -74 -299 -70 -10 4 -13 15 -9 38 3 18 1 53 -3 77 -5 25 -6 48 -4 52 7 12
634 10 634 -1z m1392 -41 c-1 -14 -3 -53 -3 -88 -1 -34 -5 -65 -9 -67 -5 -3
-142 31 -307 75 -357 96 -333 89 -333 101 0 6 126 8 328 7 l327 -3 -3 -25z
m668 18 c0 -7 -10 -38 -21 -68 -18 -48 -21 -70 -16 -167 2 -62 2 -113 -2 -113
-3 0 -129 32 -279 72 -200 53 -276 77 -283 90 -20 37 -22 107 -5 153 l18 45
294 0 c229 0 294 -3 294 -12z m502 6 c4 -3 -5 -30 -18 -59 -52 -112 -65 -266
-34 -376 6 -20 6 -37 1 -42 -6 -6 -87 12 -205 43 l-195 53 -18 46 c-12 30 -18
73 -18 126 0 69 5 89 32 148 l32 67 209 0 c115 0 211 -3 214 -6z m681 0 c3 -4
-9 -36 -28 -73 -81 -161 -102 -336 -61 -499 11 -42 15 -77 10 -81 -13 -12
-557 135 -571 155 -6 8 -19 47 -28 86 -32 128 -8 277 60 379 l25 39 293 0
c162 0 296 -3 300 -6z m509 0 c4 -3 -11 -38 -33 -78 -108 -201 -131 -383 -77
-613 12 -51 19 -95 16 -98 -3 -3 -95 18 -203 47 l-198 53 -18 40 c-25 57 -49
183 -49 258 0 111 53 272 122 370 l19 27 208 0 c114 0 210 -3 213 -6z m658 -2
c0 -4 -28 -64 -63 -132 -125 -248 -148 -474 -72 -733 13 -45 20 -85 17 -89 -4
-4 -129 25 -277 65 l-270 72 -22 62 c-90 254 -60 504 89 721 l29 42 284 0
c157 0 285 -3 285 -8z m734 -1 c3 -4 -9 -30 -26 -57 -79 -125 -149 -295 -180
-439 -16 -74 -16 -309 0 -390 7 -33 24 -102 38 -153 15 -53 23 -97 18 -102
-11 -10 -594 146 -612 164 -7 7 -24 45 -38 85 -68 194 -72 401 -13 582 27 82
91 212 135 272 l34 47 320 0 c175 0 321 -4 324 -9z m776 -4 c0 -7 -20 -45 -44
-84 -96 -153 -161 -308 -196 -468 -18 -79 -23 -132 -23 -255 0 -167 17 -276
69 -441 14 -45 22 -85 17 -89 -7 -7 -516 123 -629 160 -29 10 -35 19 -58 83
-132 379 -92 704 131 1040 l45 67 344 0 c272 0 344 -3 344 -13z m750 3 c0 -5
-24 -47 -54 -92 -117 -181 -209 -403 -243 -591 -21 -114 -23 -372 -4 -472 19
-104 50 -221 77 -299 13 -39 20 -74 16 -78 -5 -5 -148 29 -318 74 l-309 83
-28 70 c-112 279 -126 599 -36 867 42 126 123 284 207 401 l34 47 329 0 c205
0 329 -4 329 -10z m-6632 -52 c-5 -14 -535 -327 -554 -327 -13 -1 -24 21 -24
48 0 10 -13 37 -30 59 -16 23 -30 46 -30 52 0 5 17 14 38 20 63 19 587 159
595 159 5 1 7 -5 5 -11z m1005 -99 c166 -44 306 -85 311 -89 5 -5 -5 -29 -23
-56 -17 -26 -31 -57 -31 -69 0 -55 -18 -48 -300 115 -250 144 -304 180 -270
180 6 0 147 -36 313 -81z m-715 -556 l-3 -206 -50 -2 c-28 -1 -73 -10 -99 -20
-49 -19 -49 -19 -67 3 -17 21 -16 27 20 165 137 514 175 654 185 666 12 16 18
-250 14 -606z m-469 351 c-123 -123 -227 -224 -230 -224 -4 0 -18 17 -32 39
-14 21 -42 49 -62 61 -20 12 -34 27 -33 32 6 18 573 339 577 327 2 -6 -97
-112 -220 -235z m605 184 c8 -29 51 -190 96 -358 45 -168 88 -326 95 -352 13
-43 12 -49 -6 -72 l-19 -24 -55 19 c-30 10 -75 19 -100 19 l-45 0 0 410 c0
246 4 410 9 410 5 0 16 -24 25 -52z m510 -131 c154 -89 281 -166 282 -172 2
-5 -15 -23 -37 -38 -22 -15 -48 -41 -57 -57 -9 -17 -24 -30 -32 -30 -18 0
-450 429 -450 447 0 7 3 13 8 13 4 0 133 -73 286 -163z m-986 -153 c-84 -146
-158 -268 -165 -271 -6 -2 -25 5 -41 17 -15 12 -51 24 -78 28 -31 5 -50 13
-52 22 -3 19 479 499 485 483 2 -7 -64 -132 -149 -279z m884 19 c131 -131 238
-243 238 -248 0 -6 -25 -16 -55 -22 -31 -7 -68 -21 -83 -32 -16 -11 -33 -17
-38 -13 -12 9 -314 530 -314 543 0 5 3 9 7 9 5 0 115 -107 245 -237z m-745
-118 c-82 -302 -84 -310 -108 -307 -13 1 -49 5 -79 8 -61 7 -80 18 -80 44 0
16 303 551 334 589 27 34 12 -40 -67 -334z m-767 279 c52 -60 66 -127 33 -156
-21 -18 -472 -279 -487 -281 -6 -1 -13 28 -17 64 -8 75 -34 133 -90 200 -45
54 -48 66 -16 74 12 3 128 35 257 70 129 35 247 64 261 64 19 1 37 -10 59 -35z
m1373 -255 c108 -185 167 -298 165 -312 -3 -19 -12 -23 -63 -31 -33 -5 -73 -9
-90 -10 l-30 -1 -82 305 c-82 303 -90 340 -75 340 4 0 83 -131 175 -291z
m1006 194 c139 -37 256 -73 258 -80 3 -7 -13 -33 -36 -59 -56 -63 -82 -124
-89 -200 -2 -35 -9 -64 -14 -64 -6 0 -120 63 -254 141 -195 113 -245 146 -250
166 -16 61 62 182 108 170 13 -4 137 -37 277 -74z m-3009 -125 c69 -68 100
-134 99 -213 0 -33 -4 -68 -7 -77 -6 -16 -343 -218 -362 -218 -4 0 -10 44 -12
98 -3 87 -7 104 -37 159 -18 34 -58 89 -87 122 -30 32 -54 64 -54 69 0 5 35
19 78 31 42 11 124 33 182 50 58 16 115 29 126 30 13 1 42 -19 74 -51z m3684
-55 c37 -10 71 -23 73 -30 3 -7 -22 -43 -56 -79 -88 -96 -113 -154 -120 -273
-4 -61 -10 -95 -17 -94 -32 6 -341 194 -351 215 -7 12 -13 50 -13 82 0 77 27
133 100 208 l56 58 129 -35 c72 -20 161 -43 199 -52z m-2928 -3 c46 -23 71
-54 80 -98 5 -24 -15 -47 -200 -232 -128 -127 -209 -201 -215 -195 -5 6 -16
34 -26 64 -22 68 -78 130 -145 162 -29 14 -49 30 -48 38 4 19 458 280 487 281
14 0 44 -9 67 -20z m2104 -137 c132 -76 240 -144 240 -150 0 -7 -22 -24 -49
-37 -27 -14 -63 -40 -81 -58 -34 -34 -80 -120 -80 -150 0 -11 -8 -18 -18 -18
-25 0 -412 391 -412 416 0 38 39 85 93 109 28 14 56 25 60 25 4 0 115 -62 247
-137z m-3329 48 c38 -39 80 -96 98 -132 28 -56 31 -71 31 -153 0 -53 -5 -101
-13 -114 -13 -24 -492 -305 -510 -299 -6 2 -11 54 -11 133 -1 123 -3 132 -32
194 -32 67 -94 151 -172 232 -25 26 -43 51 -39 55 9 8 535 151 562 152 12 1
46 -26 86 -68z m4611 -32 c145 -39 267 -74 272 -79 5 -5 -22 -42 -67 -90 -85
-90 -136 -169 -162 -249 -14 -42 -17 -77 -13 -163 3 -60 1 -111 -4 -114 -4 -3
-122 61 -262 141 -182 105 -256 153 -260 168 -3 12 -6 63 -6 113 0 77 4 98 26
142 35 71 158 202 190 202 13 0 142 -32 286 -71z m-5240 -177 c73 -75 104
-116 134 -176 39 -79 39 -80 36 -185 -5 -191 10 -169 -195 -288 -98 -57 -183
-101 -187 -98 -5 3 -6 65 -3 139 5 117 3 141 -15 202 -27 89 -100 199 -201
304 -45 46 -81 87 -81 91 0 5 19 13 43 20 228 63 326 88 348 88 20 1 47 -21
121 -97z m2116 61 c16 -12 27 -30 27 -44 0 -26 -263 -489 -277 -489 -5 0 -34
26 -66 58 -61 62 -92 76 -194 88 -32 4 -58 12 -58 18 0 6 87 98 193 204 l192
194 78 -5 c58 -3 85 -9 105 -24z m3686 -34 c105 -28 195 -55 200 -60 5 -5 -27
-46 -75 -97 -96 -100 -152 -179 -189 -267 -23 -56 -25 -70 -24 -217 1 -126 -2
-158 -12 -158 -8 0 -92 45 -188 101 l-175 101 -7 66 c-20 178 -4 265 66 368
34 49 192 214 206 214 4 0 93 -23 198 -51z m-2050 -158 c109 -109 196 -203
193 -208 -4 -6 -34 -13 -67 -16 -85 -7 -164 -48 -203 -103 -17 -24 -34 -44
-39 -44 -11 0 -39 45 -173 278 -64 112 -115 210 -113 219 6 32 57 58 126 64
37 3 69 7 72 7 3 1 95 -87 204 -197z m-2439 83 c70 -35 110 -79 130 -146 29
-100 30 -98 -129 -257 -79 -79 -148 -141 -154 -137 -6 3 -13 25 -17 49 -22
129 -90 219 -213 281 -40 20 -72 40 -72 44 0 4 75 52 168 105 187 109 187 109
287 61z m-1799 -86 c144 -148 195 -230 215 -347 11 -67 -8 -300 -26 -319 -7
-8 -117 -74 -246 -148 -151 -87 -237 -130 -243 -124 -6 6 -6 55 2 137 24 266
-31 403 -256 635 -57 59 -102 112 -100 119 4 12 482 146 529 148 19 1 48 -22
125 -101z m4949 3 c93 -54 171 -103 173 -109 1 -5 -30 -26 -71 -46 -120 -57
-190 -151 -212 -283 -5 -31 -12 -43 -24 -43 -9 0 -79 63 -155 139 l-139 139 6
55 c9 91 57 162 136 202 32 16 100 43 111 44 3 0 81 -44 175 -98z m1918 3
c141 -38 257 -74 257 -80 0 -5 -41 -52 -91 -103 -145 -148 -217 -258 -254
-385 -20 -68 -23 -153 -11 -298 7 -94 6 -108 -7 -108 -8 0 -122 62 -253 138
l-239 138 -12 134 c-15 161 -8 215 42 315 55 113 263 336 299 322 6 -3 127
-35 269 -73z m-4019 23 c14 -10 26 -20 26 -24 0 -3 -32 -127 -72 -274 -50
-191 -75 -269 -85 -269 -8 0 -33 11 -56 25 -57 33 -158 57 -219 53 -86 -5 -85
1 57 247 70 121 133 229 140 241 12 19 22 21 98 19 61 -1 92 -6 111 -18z
m1106 -242 c80 -139 139 -252 136 -260 -4 -11 -23 -15 -74 -15 -78 0 -158 -21
-213 -56 -41 -26 -55 -29 -63 -15 -7 11 -146 527 -146 541 0 23 73 43 132 36
33 -3 60 -2 63 4 3 6 10 10 15 10 4 0 72 -110 150 -245z m-785 181 c18 -13 18
-15 2 -47 -14 -29 -14 -36 -1 -50 11 -13 14 -59 14 -242 0 -125 -3 -227 -6
-227 -3 0 -28 7 -55 16 -69 23 -156 14 -246 -23 -69 -29 -73 -30 -88 -13 -15
17 -11 38 55 286 40 148 76 273 81 278 5 6 16 3 28 -8 18 -17 21 -17 53 1 80
44 131 53 163 29z m271 -45 l61 -29 18 21 c14 16 19 17 25 6 5 -8 40 -133 79
-278 86 -323 85 -330 -35 -274 -51 24 -72 28 -149 28 -49 0 -105 -4 -122 -9
l-33 -8 0 248 c1 203 3 253 15 268 8 11 15 28 15 38 0 28 54 23 126 -11z
m-4056 -108 c160 -162 224 -259 256 -388 16 -61 16 -84 4 -242 -13 -169 -14
-175 -39 -192 -69 -47 -520 -301 -536 -301 -16 0 -17 7 -11 68 17 189 18 327
2 397 -37 153 -136 306 -318 488 -59 60 -108 112 -108 117 0 5 10 12 23 16 77
25 566 153 586 153 19 1 54 -28 141 -116z m8150 12 c157 -42 288 -79 292 -81
16 -10 6 -24 -88 -115 -179 -176 -283 -331 -325 -484 -20 -73 -21 -92 -14
-230 11 -211 11 -248 0 -252 -6 -2 -134 68 -285 155 l-275 159 -8 89 c-5 49
-9 143 -10 209 -2 135 10 177 81 293 77 128 293 349 330 338 10 -3 145 -39
302 -81z m-6171 9 c126 -57 179 -118 205 -234 30 -130 41 -110 -186 -337 -112
-112 -208 -203 -215 -203 -7 0 -15 10 -17 23 -3 12 -12 58 -21 102 -34 164
-117 264 -281 342 -84 40 -94 47 -81 60 8 8 119 75 248 149 259 149 245 145
348 98z m4106 -133 c132 -77 241 -143 242 -148 1 -4 -41 -29 -95 -54 -70 -34
-113 -62 -154 -102 -78 -77 -106 -139 -138 -309 -6 -32 -16 -58 -23 -58 -6 0
-102 91 -214 202 -228 227 -217 208 -187 337 18 79 57 147 107 185 44 34 163
85 197 86 14 0 129 -61 265 -139z m-3278 21 c46 -24 87 -71 104 -121 11 -30 6
-40 -87 -203 -55 -95 -104 -173 -111 -176 -7 -2 -23 19 -37 47 -30 57 -81 113
-129 137 -43 23 -124 44 -167 44 -47 0 -80 10 -80 24 0 6 60 71 133 144 l132
133 100 -3 c78 -3 109 -9 142 -26z m-3555 -57 c175 -157 307 -332 352 -468 31
-92 35 -167 20 -339 -8 -90 -12 -172 -10 -183 3 -11 2 -25 -2 -31 -10 -16
-583 -344 -600 -344 -13 0 -14 16 -8 103 20 315 20 368 -2 455 -46 181 -147
335 -359 551 -79 79 -143 148 -143 152 0 5 19 13 43 20 362 99 586 158 604
158 14 1 53 -26 105 -74z m6014 -76 c74 -74 134 -139 134 -146 0 -8 -13 -13
-33 -13 -58 0 -150 -21 -204 -47 -58 -27 -111 -83 -143 -150 -11 -24 -26 -43
-32 -41 -13 5 -208 338 -208 357 0 7 12 36 27 63 45 82 137 121 272 113 l53
-3 134 -133z m3613 41 c172 -46 315 -89 317 -95 2 -5 -58 -73 -134 -150 -218
-220 -318 -372 -363 -555 -23 -89 -23 -129 -3 -446 5 -69 3 -103 -4 -108 -13
-8 -580 316 -600 341 -6 10 -10 24 -7 33 3 9 -1 88 -9 177 -20 229 -8 311 70
452 42 76 83 131 171 229 82 92 221 215 236 209 7 -2 153 -41 326 -87z
m-10367 -172 c190 -172 349 -377 407 -527 46 -120 54 -206 36 -401 -8 -91 -16
-192 -17 -224 l-3 -59 -275 -159 c-151 -87 -280 -158 -287 -158 -25 0 -26 32
-10 209 21 215 21 297 3 393 -42 220 -155 398 -423 667 -99 100 -160 168 -155
173 11 11 577 166 609 167 15 1 55 -28 115 -81z m2839 53 c243 -83 327 -194
363 -476 l7 -50 -145 -144 c-145 -145 -176 -164 -176 -109 0 13 -9 66 -20 118
-45 218 -157 349 -372 435 -38 15 -68 33 -68 40 0 13 325 205 346 205 6 0 35
-8 65 -19z m8256 -76 c160 -43 297 -82 305 -86 10 -7 -20 -41 -114 -131 -198
-192 -311 -334 -391 -495 -81 -160 -101 -322 -73 -587 20 -184 20 -225 2 -232
-7 -3 -140 68 -295 157 l-281 163 0 60 c0 34 -7 134 -15 223 -26 280 12 418
173 633 102 136 359 387 386 377 7 -3 143 -40 303 -82z m-3012 -28 c92 -54
161 -100 163 -110 2 -9 -3 -17 -10 -17 -7 0 -59 -23 -116 -50 -187 -92 -270
-201 -311 -410 -30 -150 -30 -150 -43 -150 -16 0 -286 269 -294 292 -9 29 35
237 62 294 29 62 112 142 185 179 70 36 147 63 179 64 14 0 96 -41 185 -92z
m-3430 62 c50 -13 142 -68 150 -88 10 -25 -95 -401 -112 -401 -8 0 -29 11 -46
24 -48 37 -154 84 -216 97 -31 6 -86 9 -124 6 -53 -3 -70 -1 -74 9 -3 8 39 91
93 185 83 146 100 170 118 166 12 -3 32 -1 46 3 37 12 120 11 165 -1z m1697
-190 c53 -90 97 -172 97 -181 1 -16 -10 -18 -91 -18 -134 0 -219 -27 -326
-104 -39 -27 -45 -29 -55 -15 -7 9 -34 100 -61 202 -40 153 -47 189 -36 202 7
8 44 31 84 51 71 36 71 36 181 31 l110 -4 97 -164z m-2382 92 c32 -12 72 -37
92 -58 39 -40 91 -141 90 -177 0 -21 -259 -477 -286 -505 -14 -13 -16 -12 -22
5 -81 226 -188 311 -423 338 -58 6 -106 16 -108 21 -2 6 87 100 196 209 l200
199 103 -6 c69 -3 121 -12 158 -26z m1268 -21 c51 -23 59 -39 42 -91 -10 -30
-11 -42 -2 -51 12 -12 18 -279 6 -290 -3 -4 -31 6 -62 20 -110 51 -246 41
-385 -30 -52 -26 -61 -28 -74 -15 -13 13 -8 38 37 208 28 107 54 196 56 199 3
2 13 -1 23 -7 14 -9 27 -6 62 14 110 64 217 79 297 43z m1936 -179 c116 -116
196 -203 192 -210 -4 -6 -35 -11 -70 -11 -79 0 -202 -31 -261 -65 -25 -15 -64
-49 -89 -75 -43 -49 -55 -69 -95 -163 -12 -27 -26 -47 -32 -45 -6 2 -75 115
-154 252 l-144 249 21 56 c58 155 145 209 338 210 l95 1 199 -199z m-1475 128
c70 -34 88 -40 103 -30 15 9 20 8 28 -11 22 -53 99 -368 94 -382 -8 -21 -27
-20 -76 5 -62 32 -140 57 -201 64 -58 7 -163 -13 -204 -40 -51 -34 -53 -29
-53 154 0 113 4 172 11 177 6 3 9 19 5 34 -6 33 4 44 60 65 61 23 135 12 233
-36z m-3239 -61 c102 -40 178 -88 233 -146 78 -84 106 -155 142 -366 l17 -99
-198 -198 c-109 -110 -204 -199 -211 -199 -7 0 -15 17 -18 38 -54 313 -87 397
-202 511 -81 80 -148 122 -283 177 -41 16 -75 36 -75 43 0 7 105 73 234 147
260 149 233 142 361 92z m6125 -121 c127 -72 230 -138 230 -146 0 -7 -27 -23
-60 -36 -213 -80 -340 -186 -415 -348 -30 -62 -79 -266 -80 -328 0 -14 -6 -34
-14 -45 -14 -18 -25 -8 -206 171 -105 105 -196 198 -201 208 -12 21 23 231 52
316 41 117 116 199 243 263 78 39 175 77 201 78 11 0 124 -60 250 -133z
m-4053 -114 c45 -23 98 -58 117 -77 l34 -35 -73 -275 c-40 -152 -77 -280 -80
-287 -5 -7 -30 7 -71 41 -77 63 -193 123 -280 145 -47 12 -94 16 -176 13 -78
-2 -113 0 -113 8 0 6 62 118 138 250 l138 238 49 12 c28 7 91 12 142 10 85 -2
97 -5 175 -43z m1888 15 c25 -6 55 -10 66 -10 18 1 46 -40 163 -243 77 -134
141 -249 141 -255 0 -7 -27 -9 -87 -5 -121 9 -223 -12 -338 -69 -49 -25 -114
-66 -143 -91 -29 -26 -58 -45 -65 -42 -16 6 -160 548 -151 570 3 9 27 32 53
51 123 89 248 122 361 94z m-4536 -103 c137 -51 223 -102 299 -177 103 -101
134 -180 178 -443 l23 -136 -224 -224 c-124 -124 -230 -225 -237 -225 -15 0
-15 2 -47 190 -48 279 -106 395 -264 526 -66 55 -239 147 -332 177 -25 8 -46
21 -48 28 -3 16 511 318 541 319 10 0 60 -16 111 -35z m1607 -9 c85 -18 139
-46 191 -98 42 -42 98 -150 119 -231 l13 -45 -99 -171 c-54 -95 -101 -174
-105 -176 -11 -7 -26 15 -40 60 -19 61 -77 168 -116 213 -78 92 -217 150 -381
159 -56 3 -108 10 -115 14 -9 7 25 47 128 149 l140 140 100 0 c54 0 129 -7
165 -14z m1694 -16 c87 -37 130 -101 93 -138 -9 -9 -9 -18 0 -37 17 -38 17
-465 0 -465 -7 0 -33 14 -56 30 -77 51 -147 72 -247 73 -106 0 -175 -17 -293
-75 -94 -46 -115 -45 -102 4 5 18 33 125 64 238 30 113 60 224 66 248 9 35 15
42 33 40 12 -2 65 19 117 45 135 68 229 79 325 37z m4004 -121 c144 -83 261
-156 261 -163 0 -6 -24 -20 -52 -30 -158 -55 -297 -137 -386 -228 -123 -126
-168 -232 -213 -502 -12 -75 -28 -144 -35 -154 -11 -15 -36 7 -234 203 -121
121 -223 229 -226 241 -7 28 42 303 68 379 57 172 187 286 428 376 41 15 87
28 101 29 17 0 125 -57 288 -151z m-1597 -16 c75 -75 135 -140 133 -144 -3 -3
-44 -10 -92 -14 -287 -22 -424 -119 -518 -362 -16 -40 -33 -73 -39 -73 -6 0
-56 78 -110 172 l-99 172 12 46 c21 84 88 206 136 248 79 69 215 105 365 96
l75 -4 137 -137z m-1841 108 c30 -11 81 -36 112 -55 33 -20 64 -32 76 -29 13
3 21 -1 25 -14 30 -98 136 -511 136 -529 0 -13 -4 -24 -9 -24 -5 0 -45 18 -89
40 -114 57 -226 84 -322 77 -86 -6 -169 -34 -229 -77 -22 -17 -45 -30 -51 -30
-14 0 -14 507 0 515 6 4 8 21 5 39 -6 30 -3 35 37 61 24 16 61 34 83 42 54 17
157 10 226 -16z m-4509 -307 c252 -88 415 -209 496 -369 39 -77 82 -262 119
-508 l6 -39 -239 -239 c-131 -131 -244 -239 -251 -239 -15 0 -18 8 -48 190
-59 344 -112 469 -266 616 -98 94 -261 187 -431 246 -38 12 -68 28 -68 35 0 8
562 342 577 343 0 0 48 -16 105 -36z m1928 -5 c182 -38 285 -142 361 -366 l29
-87 -59 -106 c-121 -216 -216 -374 -227 -377 -6 -2 -25 37 -43 89 -84 242
-217 377 -426 432 -33 9 -116 21 -185 27 -69 6 -127 13 -129 15 -7 6 361 374
384 385 25 12 222 4 295 -12z m6665 -152 c154 -90 280 -168 280 -176 0 -7 -47
-30 -104 -51 -271 -103 -440 -238 -540 -430 -52 -99 -75 -181 -112 -395 -17
-98 -35 -188 -41 -198 -9 -18 -36 6 -256 226 l-245 245 32 187 c36 206 57 280
104 369 57 108 172 213 307 282 61 31 257 103 280 103 8 0 141 -73 295 -162z
m-1837 -50 c106 -106 190 -196 186 -200 -4 -4 -28 -7 -53 -7 -86 0 -226 -22
-300 -46 -191 -64 -293 -174 -376 -408 -18 -50 -39 -92 -47 -94 -7 -1 -27 21
-44 50 -17 29 -79 137 -138 239 l-107 186 40 111 c21 62 53 135 71 162 87 135
232 197 465 199 l110 1 193 -193z m-3863 118 c134 -28 336 -150 359 -217 7
-21 -2 -68 -40 -213 -27 -103 -55 -190 -61 -192 -7 -3 -38 17 -68 45 -168 154
-353 221 -577 209 -73 -4 -108 -2 -108 5 0 14 177 323 193 336 18 14 135 40
187 41 25 0 77 -6 115 -14z m2646 -32 l69 -16 95 -164 c52 -91 95 -171 95
-179 0 -12 -8 -13 -37 -7 -21 4 -81 7 -133 7 -193 -2 -376 -81 -538 -233 -18
-17 -37 -31 -42 -31 -10 0 -18 23 -69 216 -23 84 -41 163 -41 177 0 59 199
194 340 231 75 20 178 19 261 -1z m-1649 -171 c35 -16 84 -48 109 -70 l46 -41
2 -201 c1 -144 -2 -200 -10 -200 -6 0 -28 13 -48 28 -105 82 -196 113 -330
113 -121 -1 -211 -25 -345 -92 -55 -27 -103 -46 -107 -42 -7 7 84 369 94 380
8 7 121 68 184 99 151 72 289 81 405 26z m769 -29 c41 -17 105 -49 142 -72 37
-23 73 -41 81 -41 15 0 120 -380 108 -392 -4 -4 -46 13 -92 37 -266 140 -507
135 -694 -14 -21 -17 -43 -31 -49 -31 -6 0 -8 74 -5 205 l4 205 35 30 c96 85
171 111 299 107 79 -3 108 -9 171 -34z m-5330 -63 c206 -68 377 -167 482 -280
135 -146 160 -222 254 -768 6 -33 0 -40 -223 -263 -126 -126 -232 -229 -237
-229 -14 0 -25 44 -57 231 -17 101 -42 227 -56 279 -32 124 -98 258 -169 343
-113 136 -313 264 -539 346 -56 20 -101 42 -101 49 0 13 519 320 542 321 6 1
53 -13 104 -29z m9919 -152 c145 -84 265 -158 267 -164 2 -7 -30 -24 -74 -39
-114 -41 -270 -116 -354 -170 -41 -26 -115 -88 -164 -139 -72 -72 -100 -109
-137 -181 -71 -139 -96 -230 -139 -495 -29 -177 -39 -220 -52 -220 -7 0 -115
103 -241 229 -210 210 -228 231 -224 257 3 16 20 110 37 209 42 238 54 284
106 390 75 155 189 265 370 356 112 56 277 118 316 119 16 0 127 -58 289 -152z
m-7728 68 c105 -23 194 -71 263 -140 72 -73 109 -140 165 -302 l42 -122 -152
-263 c-84 -145 -157 -270 -163 -277 -17 -21 -31 3 -67 113 -18 55 -54 141 -79
190 -121 238 -363 365 -695 365 -52 0 -87 4 -92 11 -4 7 82 100 214 232 l221
220 138 -6 c76 -4 168 -13 205 -21z m5723 -226 c120 -120 217 -221 215 -223
-3 -2 -70 -9 -150 -16 -244 -19 -385 -70 -505 -183 -97 -91 -170 -221 -235
-420 -12 -38 -27 -68 -34 -68 -6 0 -25 24 -42 53 -17 28 -88 151 -158 272
l-127 221 42 119 c89 260 176 363 357 424 89 30 150 39 292 40 l125 1 220
-220z m-4522 164 c34 -8 94 -31 132 -49 126 -60 275 -190 275 -239 -1 -25
-135 -524 -143 -533 -4 -3 -44 30 -90 74 -218 209 -525 310 -784 257 -28 -5
-33 -4 -32 12 0 11 57 118 128 238 120 208 129 220 167 233 100 35 228 38 347
7z m3087 -30 l55 -19 129 -223 c70 -122 126 -228 123 -236 -4 -10 -15 -12 -49
-5 -61 12 -194 11 -264 -2 -186 -33 -373 -130 -512 -265 -36 -36 -70 -63 -76
-61 -11 5 -146 497 -146 534 0 13 30 49 81 97 92 87 237 166 349 191 85 19
237 14 310 -11z m-2058 -165 c78 -16 170 -64 236 -125 l59 -53 2 -276 c1 -171
-2 -275 -8 -275 -5 0 -36 22 -68 50 -223 191 -524 198 -849 19 -39 -21 -74
-39 -78 -39 -12 0 -5 37 45 224 87 329 66 286 172 350 194 115 347 154 489
125z m930 -38 c77 -20 175 -65 283 -129 33 -20 61 -37 62 -37 1 0 32 -110 68
-243 59 -221 72 -282 61 -282 -2 0 -33 16 -68 36 -74 42 -159 79 -243 106 -77
25 -268 35 -346 19 -77 -16 -190 -72 -265 -131 -35 -28 -68 -50 -74 -50 -12 0
-13 439 -1 512 6 38 16 55 52 87 51 47 160 107 215 120 67 16 177 12 256 -8z
m-3772 -201 c292 -26 465 -128 571 -335 25 -49 67 -154 93 -232 l47 -142 -168
-290 c-92 -160 -173 -291 -180 -291 -6 0 -28 51 -49 113 -82 248 -157 382
-272 487 -147 135 -384 210 -664 210 -64 0 -88 3 -88 13 0 7 102 114 228 239
248 248 219 228 342 236 14 1 77 -3 140 -8z m6857 -252 c128 -128 232 -237
230 -243 -2 -6 -46 -11 -103 -12 -204 -5 -377 -42 -509 -111 -49 -26 -97 -63
-160 -127 -76 -75 -99 -106 -141 -190 -28 -55 -70 -158 -94 -230 -23 -71 -48
-136 -55 -143 -16 -18 -18 -15 -205 310 l-153 268 48 137 c96 277 166 381 310
468 114 68 268 102 475 104 l124 1 233 -232z m-5365 138 c177 -34 360 -136
487 -271 39 -43 71 -86 71 -97 0 -29 -150 -590 -161 -604 -7 -8 -39 18 -107
86 -238 240 -563 366 -856 331 -118 -14 -116 -14 -116 2 0 23 286 510 308 525
57 38 247 52 374 28z m3693 -32 c39 -8 75 -18 82 -22 21 -13 312 -527 304
-535 -5 -5 -35 -4 -67 2 -301 56 -671 -80 -922 -338 -48 -49 -86 -81 -91 -75
-9 11 -161 576 -161 601 0 22 70 108 130 160 137 119 321 203 487 222 79 10
140 6 238 -15z m-2385 -219 c91 -24 179 -75 261 -153 l77 -72 1 -310 c1 -223
-2 -310 -10 -310 -6 0 -39 25 -72 56 -229 208 -528 254 -845 130 -34 -14 -106
-48 -159 -76 -53 -28 -100 -47 -105 -42 -4 4 26 134 67 287 84 314 73 294 198
367 206 120 424 166 587 123z m1019 -16 c119 -19 275 -84 412 -172 l55 -35 77
-287 c42 -158 75 -290 72 -295 -3 -4 -60 20 -127 54 -396 200 -702 181 -983
-63 -38 -34 -74 -61 -78 -61 -4 0 -7 138 -6 307 1 355 -6 326 108 418 146 118
300 162 470 134z m-4127 -192 c202 -53 355 -166 447 -330 35 -63 181 -445 181
-475 0 -19 -319 -557 -330 -557 -7 0 -38 75 -74 180 -82 237 -124 321 -218
441 -155 199 -451 314 -805 314 -71 0 -114 4 -119 11 -4 7 84 102 212 231
l219 220 195 -5 c168 -4 208 -8 292 -30z m7695 -209 c123 -122 223 -226 223
-230 0 -4 -26 -8 -57 -8 -92 0 -281 -19 -368 -36 -245 -49 -428 -165 -550
-348 -69 -104 -94 -159 -171 -376 -35 -99 -68 -176 -76 -178 -8 -1 -75 106
-172 274 l-158 275 62 182 c84 247 133 340 235 443 157 158 346 218 694 223
l115 1 223 -222z m-6144 33 c108 -28 221 -79 324 -146 95 -62 246 -207 277
-267 l20 -36 -84 -314 c-46 -172 -88 -319 -95 -326 -9 -10 -20 -2 -55 43 -101
131 -299 285 -463 359 -219 100 -449 136 -659 104 -43 -6 -81 -9 -84 -6 -3 4
68 133 157 288 114 198 169 284 185 291 115 43 333 48 477 10z m4291 -16 c38
-8 78 -21 89 -28 27 -18 339 -559 328 -570 -5 -5 -36 -3 -71 3 -87 16 -258 14
-360 -4 -194 -35 -421 -138 -575 -263 -54 -44 -184 -175 -207 -210 -13 -18
-28 -33 -35 -33 -7 0 -19 24 -27 53 -54 188 -156 578 -156 592 0 43 172 225
280 296 115 76 258 137 380 163 86 19 268 19 354 1z m-2776 -278 c108 -37 206
-100 299 -192 l83 -82 0 -331 c0 -183 -3 -332 -8 -332 -4 0 -39 29 -77 65
-181 170 -346 243 -566 252 -207 9 -365 -31 -599 -149 -74 -37 -136 -68 -137
-68 -10 0 5 65 62 280 103 386 86 342 158 388 141 89 294 154 438 187 96 22
255 14 347 -18z m1227 -12 c132 -27 317 -109 436 -193 l52 -37 78 -290 c71
-262 87 -335 75 -335 -2 0 -37 19 -78 42 -170 97 -347 158 -518 179 -251 32
-500 -57 -706 -253 -39 -37 -74 -68 -78 -68 -3 0 -6 149 -6 331 l0 331 73 75
c111 115 229 187 357 218 75 18 226 18 315 0z m-3110 -344 c259 -54 516 -206
683 -402 121 -141 118 -100 28 -435 -42 -159 -80 -297 -82 -306 -9 -31 -28
-19 -84 53 -207 267 -548 466 -898 524 -102 17 -295 16 -419 -1 -27 -4 -43 -2
-43 4 0 6 67 127 149 269 103 178 157 262 174 271 87 43 339 55 492 23z m5043
-26 c42 -10 83 -26 96 -38 26 -24 306 -507 306 -527 0 -9 -11 -11 -42 -6 -369
62 -738 -31 -1056 -266 -80 -59 -230 -206 -277 -272 -22 -31 -43 -56 -47 -56
-14 0 -27 40 -103 324 -65 244 -75 293 -66 314 21 45 98 137 178 213 283 265
681 389 1011 314z m-3274 -315 c143 -36 272 -117 404 -254 l92 -95 0 -309 c0
-170 -3 -312 -7 -315 -3 -4 -49 35 -102 86 -204 197 -393 283 -647 294 -218
10 -403 -37 -664 -169 -85 -43 -156 -78 -157 -78 -9 0 4 55 72 306 85 320 70
295 230 383 296 165 541 212 779 151z m1521 -30 c172 -46 486 -204 504 -254
22 -59 153 -567 148 -573 -4 -3 -75 28 -159 70 -256 127 -410 169 -623 169
-240 0 -428 -72 -632 -243 -45 -38 -94 -85 -109 -104 -53 -70 -54 -64 -54 274
l0 310 57 67 c125 148 303 259 478 299 88 21 288 13 390 -15z"/>
</g>
</svg>
